<?xml version="1.0" encoding="UTF-8"?>
<svg id="Layer_2" data-name="Layer 2" xmlns="http://www.w3.org/2000/svg" viewBox="0 0 416.19 354.84">
  <defs>
    <style>
      .cls-1 {
        fill: #8a63d2;
        stroke-width: 0px;
      }
    </style>
  </defs>
  <g id="Layer_1-2" data-name="Layer 1">
    <g>
      <path class="cls-1" d="M7.89,0c.76,0,1.45.13,2.08.39.63.26,1.16.66,1.61,1.19.96,1.13,1.44,2.74,1.44,4.85s-.48,3.72-1.44,4.84c-.89,1.05-2.11,1.58-3.67,1.58s-2.81-.53-3.71-1.58c-.95-1.1-1.42-2.72-1.42-4.84s.48-3.74,1.42-4.85c.9-1.05,2.13-1.58,3.69-1.58ZM9.97,3.16c-.49-.75-1.18-1.13-2.07-1.13s-1.58.38-2.07,1.13c-.49.75-.73,1.84-.73,3.26s.24,2.5.73,3.24,1.18,1.11,2.07,1.11,1.58-.37,2.07-1.11c.49-.74.73-1.82.73-3.24s-.24-2.5-.73-3.26Z"/>
      <path class="cls-1" d="M19.51,1.18c.95-.14,1.79-.48,2.51-1.01h1.69v12.41h-2.24V2.85c-.65.32-1.3.48-1.96.48V1.18Z"/>
      <path class="cls-1" d="M31.1,1.18c.95-.14,1.79-.48,2.51-1.01h1.69v12.41h-2.24V2.85c-.65.32-1.3.48-1.96.48V1.18Z"/>
      <path class="cls-1" d="M47.9,0c.76,0,1.45.13,2.08.39.63.26,1.16.66,1.61,1.19.96,1.13,1.44,2.74,1.44,4.85s-.48,3.72-1.44,4.84c-.89,1.05-2.11,1.58-3.67,1.58s-2.81-.53-3.71-1.58c-.95-1.1-1.42-2.72-1.42-4.84s.48-3.74,1.42-4.85c.9-1.05,2.13-1.58,3.69-1.58ZM49.98,3.16c-.49-.75-1.18-1.13-2.07-1.13s-1.58.38-2.07,1.13c-.49.75-.73,1.84-.73,3.26s.24,2.5.73,3.24,1.18,1.11,2.07,1.11,1.58-.37,2.07-1.11c.49-.74.73-1.82.73-3.24s-.24-2.5-.73-3.26Z"/>
      <path class="cls-1" d="M64.73,0c.76,0,1.45.13,2.08.39.63.26,1.16.66,1.61,1.19.96,1.13,1.44,2.74,1.44,4.85s-.48,3.72-1.44,4.84c-.89,1.05-2.11,1.58-3.67,1.58s-2.81-.53-3.71-1.58c-.95-1.1-1.42-2.72-1.42-4.84s.48-3.74,1.42-4.85c.9-1.05,2.13-1.58,3.69-1.58ZM66.81,3.16c-.49-.75-1.18-1.13-2.07-1.13s-1.58.38-2.07,1.13c-.49.75-.73,1.84-.73,3.26s.24,2.5.73,3.24,1.18,1.11,2.07,1.11,1.58-.37,2.07-1.11c.49-.74.73-1.82.73-3.24s-.24-2.5-.73-3.26Z"/>
      <path class="cls-1" d="M76.36,1.18c.95-.14,1.79-.48,2.51-1.01h1.69v12.41h-2.24V2.85c-.65.32-1.3.48-1.96.48V1.18Z"/>
      <path class="cls-1" d="M87.95,1.18c.95-.14,1.79-.48,2.51-1.01h1.69v12.41h-2.24V2.85c-.65.32-1.3.48-1.96.48V1.18Z"/>
      <path class="cls-1" d="M104.74,0c.76,0,1.45.13,2.08.39.63.26,1.16.66,1.61,1.19.96,1.13,1.44,2.74,1.44,4.85s-.48,3.72-1.44,4.84c-.89,1.05-2.11,1.58-3.67,1.58s-2.81-.53-3.71-1.58c-.95-1.1-1.42-2.72-1.42-4.84s.48-3.74,1.42-4.85c.9-1.05,2.13-1.58,3.69-1.58ZM106.83,3.16c-.49-.75-1.18-1.13-2.07-1.13s-1.58.38-2.07,1.13c-.49.75-.73,1.84-.73,3.26s.24,2.5.73,3.24,1.18,1.11,2.07,1.11,1.58-.37,2.07-1.11c.49-.74.73-1.82.73-3.24s-.24-2.5-.73-3.26Z"/>
      <path class="cls-1" d="M121.58,0c.76,0,1.45.13,2.08.39.63.26,1.16.66,1.61,1.19.96,1.13,1.44,2.74,1.44,4.85s-.48,3.72-1.44,4.84c-.89,1.05-2.11,1.58-3.67,1.58s-2.81-.53-3.71-1.58c-.95-1.1-1.42-2.72-1.42-4.84s.48-3.74,1.42-4.85c.9-1.05,2.13-1.58,3.69-1.58ZM123.66,3.16c-.49-.75-1.18-1.13-2.07-1.13s-1.58.38-2.07,1.13c-.49.75-.73,1.84-.73,3.26s.24,2.5.73,3.24,1.18,1.11,2.07,1.11,1.58-.37,2.07-1.11c.49-.74.73-1.82.73-3.24s-.24-2.5-.73-3.26Z"/>
      <path class="cls-1" d="M133.21,1.18c.95-.14,1.79-.48,2.51-1.01h1.69v12.41h-2.24V2.85c-.65.32-1.3.48-1.96.48V1.18Z"/>
      <path class="cls-1" d="M144.79,1.18c.95-.14,1.79-.48,2.51-1.01h1.69v12.41h-2.24V2.85c-.65.32-1.3.48-1.96.48V1.18Z"/>
      <path class="cls-1" d="M161.59,0c.76,0,1.45.13,2.08.39.63.26,1.16.66,1.61,1.19.96,1.13,1.44,2.74,1.44,4.85s-.48,3.72-1.44,4.84c-.89,1.05-2.11,1.58-3.67,1.58s-2.81-.53-3.71-1.58c-.95-1.1-1.42-2.72-1.42-4.84s.48-3.74,1.42-4.85c.9-1.05,2.13-1.58,3.69-1.58ZM163.67,3.16c-.49-.75-1.18-1.13-2.07-1.13s-1.58.38-2.07,1.13c-.49.75-.73,1.84-.73,3.26s.24,2.5.73,3.24,1.18,1.11,2.07,1.11,1.58-.37,2.07-1.11c.49-.74.73-1.82.73-3.24s-.24-2.5-.73-3.26Z"/>
      <path class="cls-1" d="M178.42,0c.76,0,1.45.13,2.08.39.63.26,1.16.66,1.61,1.19.96,1.13,1.44,2.74,1.44,4.85s-.48,3.72-1.44,4.84c-.89,1.05-2.11,1.58-3.67,1.58s-2.81-.53-3.71-1.58c-.95-1.1-1.42-2.72-1.42-4.84s.48-3.74,1.42-4.85c.9-1.05,2.13-1.58,3.69-1.58ZM180.5,3.16c-.49-.75-1.18-1.13-2.07-1.13s-1.58.38-2.07,1.13c-.49.75-.73,1.84-.73,3.26s.24,2.5.73,3.24,1.18,1.11,2.07,1.11,1.58-.37,2.07-1.11c.49-.74.73-1.82.73-3.24s-.24-2.5-.73-3.26Z"/>
      <path class="cls-1" d="M195.26,0c.76,0,1.45.13,2.08.39.63.26,1.16.66,1.61,1.19.96,1.13,1.44,2.74,1.44,4.85s-.48,3.72-1.44,4.84c-.89,1.05-2.11,1.58-3.67,1.58s-2.81-.53-3.71-1.58c-.95-1.1-1.42-2.72-1.42-4.84s.48-3.74,1.42-4.85c.9-1.05,2.13-1.58,3.69-1.58ZM197.34,3.16c-.49-.75-1.18-1.13-2.07-1.13s-1.58.38-2.07,1.13c-.49.75-.73,1.84-.73,3.26s.24,2.5.73,3.24,1.18,1.11,2.07,1.11,1.58-.37,2.07-1.11c.49-.74.73-1.82.73-3.24s-.24-2.5-.73-3.26Z"/>
      <path class="cls-1" d="M212.09,0c.76,0,1.45.13,2.08.39.63.26,1.16.66,1.61,1.19.96,1.13,1.44,2.74,1.44,4.85s-.48,3.72-1.44,4.84c-.89,1.05-2.11,1.58-3.67,1.58s-2.81-.53-3.71-1.58c-.95-1.1-1.42-2.72-1.42-4.84s.48-3.74,1.42-4.85c.9-1.05,2.13-1.58,3.69-1.58ZM214.17,3.16c-.49-.75-1.18-1.13-2.07-1.13s-1.58.38-2.07,1.13c-.49.75-.73,1.84-.73,3.26s.24,2.5.73,3.24,1.18,1.11,2.07,1.11,1.58-.37,2.07-1.11.73-1.82.73-3.24-.24-2.5-.73-3.26Z"/>
      <path class="cls-1" d="M223.72,1.18c.95-.14,1.79-.48,2.51-1.01h1.69v12.41h-2.24V2.85c-.65.32-1.3.48-1.96.48V1.18Z"/>
      <path class="cls-1" d="M240.51,0c.76,0,1.45.13,2.08.39.63.26,1.16.66,1.61,1.19.96,1.13,1.44,2.74,1.44,4.85s-.48,3.72-1.44,4.84c-.89,1.05-2.11,1.58-3.67,1.58s-2.81-.53-3.71-1.58c-.95-1.1-1.43-2.72-1.43-4.84s.48-3.74,1.43-4.85c.9-1.05,2.13-1.58,3.69-1.58ZM242.6,3.16c-.49-.75-1.18-1.13-2.07-1.13s-1.58.38-2.07,1.13c-.49.75-.73,1.84-.73,3.26s.24,2.5.73,3.24,1.18,1.11,2.07,1.11,1.58-.37,2.07-1.11c.49-.74.73-1.82.73-3.24s-.24-2.5-.73-3.26Z"/>
      <path class="cls-1" d="M252.14,1.18c.95-.14,1.79-.48,2.51-1.01h1.69v12.41h-2.24V2.85c-.65.32-1.3.48-1.96.48V1.18Z"/>
      <path class="cls-1" d="M263.73,1.18c.95-.14,1.79-.48,2.51-1.01h1.69v12.41h-2.24V2.85c-.65.32-1.3.48-1.96.48V1.18Z"/>
      <path class="cls-1" d="M275.32,1.18c.95-.14,1.79-.48,2.51-1.01h1.69v12.41h-2.24V2.85c-.65.32-1.3.48-1.96.48V1.18Z"/>
      <path class="cls-1" d="M292.12,0c.76,0,1.45.13,2.08.39.63.26,1.16.66,1.61,1.19.96,1.13,1.44,2.74,1.44,4.85s-.48,3.72-1.44,4.84c-.89,1.05-2.11,1.58-3.67,1.58s-2.81-.53-3.71-1.58c-.95-1.1-1.43-2.72-1.43-4.84s.48-3.74,1.43-4.85c.9-1.05,2.13-1.58,3.69-1.58ZM294.2,3.16c-.49-.75-1.18-1.13-2.07-1.13s-1.58.38-2.07,1.13c-.49.75-.73,1.84-.73,3.26s.24,2.5.73,3.24,1.18,1.11,2.07,1.11,1.58-.37,2.07-1.11c.49-.74.73-1.82.73-3.24s-.24-2.5-.73-3.26Z"/>
      <path class="cls-1" d="M308.95,0c.76,0,1.45.13,2.08.39.63.26,1.16.66,1.61,1.19.96,1.13,1.44,2.74,1.44,4.85s-.48,3.72-1.44,4.84c-.89,1.05-2.11,1.58-3.67,1.58s-2.81-.53-3.71-1.58c-.95-1.1-1.43-2.72-1.43-4.84s.48-3.74,1.43-4.85c.9-1.05,2.13-1.58,3.69-1.58ZM311.03,3.16c-.49-.75-1.18-1.13-2.07-1.13s-1.58.38-2.07,1.13c-.49.75-.73,1.84-.73,3.26s.24,2.5.73,3.24,1.18,1.11,2.07,1.11,1.58-.37,2.07-1.11c.49-.74.73-1.82.73-3.24s-.24-2.5-.73-3.26Z"/>
      <path class="cls-1" d="M320.58,1.18c.95-.14,1.79-.48,2.51-1.01h1.69v12.41h-2.24V2.85c-.65.32-1.3.48-1.96.48V1.18Z"/>
      <path class="cls-1" d="M337.38,0c.76,0,1.45.13,2.08.39.63.26,1.16.66,1.61,1.19.96,1.13,1.44,2.74,1.44,4.85s-.48,3.72-1.44,4.84c-.89,1.05-2.11,1.58-3.67,1.58s-2.81-.53-3.71-1.58c-.95-1.1-1.43-2.72-1.43-4.84s.48-3.74,1.43-4.85c.9-1.05,2.13-1.58,3.69-1.58ZM339.46,3.16c-.49-.75-1.18-1.13-2.07-1.13s-1.58.38-2.07,1.13c-.49.75-.73,1.84-.73,3.26s.24,2.5.73,3.24,1.18,1.11,2.07,1.11,1.58-.37,2.07-1.11c.49-.74.73-1.82.73-3.24s-.24-2.5-.73-3.26Z"/>
      <path class="cls-1" d="M354.21,0c.76,0,1.45.13,2.08.39.63.26,1.16.66,1.61,1.19.96,1.13,1.44,2.74,1.44,4.85s-.48,3.72-1.44,4.84c-.89,1.05-2.11,1.58-3.67,1.58s-2.81-.53-3.71-1.58c-.95-1.1-1.43-2.72-1.43-4.84s.48-3.74,1.43-4.85c.9-1.05,2.13-1.58,3.69-1.58ZM356.29,3.16c-.49-.75-1.18-1.13-2.07-1.13s-1.58.38-2.07,1.13c-.49.75-.73,1.84-.73,3.26s.24,2.5.73,3.24,1.18,1.11,2.07,1.11,1.58-.37,2.07-1.11c.49-.74.73-1.82.73-3.24s-.24-2.5-.73-3.26Z"/>
      <path class="cls-1" d="M365.84,1.18c.95-.14,1.79-.48,2.51-1.01h1.69v12.41h-2.24V2.85c-.65.32-1.3.48-1.96.48V1.18Z"/>
      <path class="cls-1" d="M377.43,1.18c.95-.14,1.79-.48,2.51-1.01h1.69v12.41h-2.24V2.85c-.65.32-1.3.48-1.96.48V1.18Z"/>
      <path class="cls-1" d="M394.22,0c.76,0,1.45.13,2.08.39.63.26,1.16.66,1.61,1.19.96,1.13,1.44,2.74,1.44,4.85s-.48,3.72-1.44,4.84c-.89,1.05-2.11,1.58-3.67,1.58s-2.81-.53-3.71-1.58c-.95-1.1-1.43-2.72-1.43-4.84s.48-3.74,1.43-4.85c.9-1.05,2.13-1.58,3.69-1.58ZM396.3,3.16c-.49-.75-1.18-1.13-2.07-1.13s-1.58.38-2.07,1.13c-.49.75-.73,1.84-.73,3.26s.24,2.5.73,3.24,1.18,1.11,2.07,1.11,1.58-.37,2.07-1.11c.49-.74.73-1.82.73-3.24s-.24-2.5-.73-3.26Z"/>
      <path class="cls-1" d="M411.06,0c.76,0,1.45.13,2.08.39.63.26,1.16.66,1.61,1.19.96,1.13,1.44,2.74,1.44,4.85s-.48,3.72-1.44,4.84c-.89,1.05-2.11,1.58-3.67,1.58s-2.81-.53-3.71-1.58c-.95-1.1-1.43-2.72-1.43-4.84s.48-3.74,1.43-4.85c.9-1.05,2.13-1.58,3.69-1.58ZM413.14,3.16c-.49-.75-1.18-1.13-2.07-1.13s-1.58.38-2.07,1.13c-.49.75-.73,1.84-.73,3.26s.24,2.5.73,3.24,1.18,1.11,2.07,1.11,1.58-.37,2.07-1.11c.49-.74.73-1.82.73-3.24s-.24-2.5-.73-3.26Z"/>
      <path class="cls-1" d="M15.2,22.8c.76,0,1.45.13,2.08.39.63.26,1.16.66,1.61,1.19.96,1.13,1.44,2.74,1.44,4.85s-.48,3.72-1.44,4.84c-.89,1.05-2.11,1.58-3.67,1.58s-2.81-.53-3.71-1.58c-.95-1.1-1.42-2.72-1.42-4.84s.48-3.74,1.42-4.85c.9-1.05,2.13-1.58,3.69-1.58ZM17.28,25.96c-.49-.75-1.18-1.13-2.07-1.13s-1.58.38-2.07,1.13c-.49.75-.73,1.84-.73,3.26s.24,2.5.73,3.24,1.18,1.11,2.07,1.11,1.58-.37,2.07-1.11c.49-.74.73-1.82.73-3.24s-.24-2.5-.73-3.26Z"/>
      <path class="cls-1" d="M26.83,23.98c.95-.14,1.79-.48,2.51-1.01h1.69v12.41h-2.24v-9.73c-.65.32-1.3.48-1.96.48v-2.15Z"/>
      <path class="cls-1" d="M38.42,23.98c.95-.14,1.79-.48,2.51-1.01h1.69v12.41h-2.24v-9.73c-.65.32-1.3.48-1.96.48v-2.15Z"/>
      <path class="cls-1" d="M55.21,22.8c.76,0,1.45.13,2.08.39.63.26,1.16.66,1.61,1.19.96,1.13,1.44,2.74,1.44,4.85s-.48,3.72-1.44,4.84c-.89,1.05-2.11,1.58-3.67,1.58s-2.81-.53-3.71-1.58c-.95-1.1-1.42-2.72-1.42-4.84s.48-3.74,1.42-4.85c.9-1.05,2.13-1.58,3.69-1.58ZM57.29,25.96c-.49-.75-1.18-1.13-2.07-1.13s-1.58.38-2.07,1.13c-.49.75-.73,1.84-.73,3.26s.24,2.5.73,3.24,1.18,1.11,2.07,1.11,1.58-.37,2.07-1.11c.49-.74.73-1.82.73-3.24s-.24-2.5-.73-3.26Z"/>
      <path class="cls-1" d="M66.84,23.98c.95-.14,1.79-.48,2.51-1.01h1.69v12.41h-2.24v-9.73c-.65.32-1.3.48-1.96.48v-2.15Z"/>
      <path class="cls-1" d="M78.43,23.98c.95-.14,1.79-.48,2.51-1.01h1.69v12.41h-2.24v-9.73c-.65.32-1.3.48-1.96.48v-2.15Z"/>
      <path class="cls-1" d="M95.23,22.8c.76,0,1.45.13,2.08.39.63.26,1.16.66,1.61,1.19.96,1.13,1.44,2.74,1.44,4.85s-.48,3.72-1.44,4.84c-.89,1.05-2.11,1.58-3.67,1.58s-2.81-.53-3.71-1.58c-.95-1.1-1.42-2.72-1.42-4.84s.48-3.74,1.42-4.85c.9-1.05,2.13-1.58,3.69-1.58ZM97.31,25.96c-.49-.75-1.18-1.13-2.07-1.13s-1.58.38-2.07,1.13c-.49.75-.73,1.84-.73,3.26s.24,2.5.73,3.24,1.18,1.11,2.07,1.11,1.58-.37,2.07-1.11c.49-.74.73-1.82.73-3.24s-.24-2.5-.73-3.26Z"/>
      <path class="cls-1" d="M106.85,23.98c.95-.14,1.79-.48,2.51-1.01h1.69v12.41h-2.24v-9.73c-.65.32-1.3.48-1.96.48v-2.15Z"/>
      <path class="cls-1" d="M118.44,23.98c.95-.14,1.79-.48,2.51-1.01h1.69v12.41h-2.24v-9.73c-.65.32-1.3.48-1.96.48v-2.15Z"/>
      <path class="cls-1" d="M130.03,23.98c.95-.14,1.79-.48,2.51-1.01h1.69v12.41h-2.24v-9.73c-.65.32-1.3.48-1.96.48v-2.15Z"/>
      <path class="cls-1" d="M141.62,23.98c.95-.14,1.79-.48,2.51-1.01h1.69v12.41h-2.24v-9.73c-.65.32-1.3.48-1.96.48v-2.15Z"/>
      <path class="cls-1" d="M158.42,22.8c.76,0,1.45.13,2.08.39.63.26,1.16.66,1.61,1.19.96,1.13,1.44,2.74,1.44,4.85s-.48,3.72-1.44,4.84c-.89,1.05-2.11,1.58-3.67,1.58s-2.81-.53-3.71-1.58c-.95-1.1-1.42-2.72-1.42-4.84s.48-3.74,1.42-4.85c.9-1.05,2.13-1.58,3.69-1.58ZM160.5,25.96c-.49-.75-1.18-1.13-2.07-1.13s-1.58.38-2.07,1.13c-.49.75-.73,1.84-.73,3.26s.24,2.5.73,3.24,1.18,1.11,2.07,1.11,1.58-.37,2.07-1.11c.49-.74.73-1.82.73-3.24s-.24-2.5-.73-3.26Z"/>
      <path class="cls-1" d="M170.04,23.98c.95-.14,1.79-.48,2.51-1.01h1.69v12.41h-2.24v-9.73c-.65.32-1.3.48-1.96.48v-2.15Z"/>
      <path class="cls-1" d="M181.63,23.98c.95-.14,1.79-.48,2.51-1.01h1.69v12.41h-2.24v-9.73c-.65.32-1.3.48-1.96.48v-2.15Z"/>
      <path class="cls-1" d="M198.43,22.8c.76,0,1.45.13,2.08.39.63.26,1.16.66,1.61,1.19.96,1.13,1.44,2.74,1.44,4.85s-.48,3.72-1.44,4.84c-.89,1.05-2.11,1.58-3.67,1.58s-2.81-.53-3.71-1.58c-.95-1.1-1.42-2.72-1.42-4.84s.48-3.74,1.42-4.85c.9-1.05,2.13-1.58,3.69-1.58ZM200.51,25.96c-.49-.75-1.18-1.13-2.07-1.13s-1.58.38-2.07,1.13c-.49.75-.73,1.84-.73,3.26s.24,2.5.73,3.24,1.18,1.11,2.07,1.11,1.58-.37,2.07-1.11c.49-.74.73-1.82.73-3.24s-.24-2.5-.73-3.26Z"/>
      <path class="cls-1" d="M210.06,23.98c.95-.14,1.79-.48,2.51-1.01h1.69v12.41h-2.24v-9.73c-.65.32-1.3.48-1.96.48v-2.15Z"/>
      <path class="cls-1" d="M221.65,23.98c.95-.14,1.79-.48,2.51-1.01h1.69v12.41h-2.24v-9.73c-.65.32-1.3.48-1.96.48v-2.15Z"/>
      <path class="cls-1" d="M233.24,23.98c.95-.14,1.79-.48,2.51-1.01h1.69v12.41h-2.24v-9.73c-.65.32-1.3.48-1.96.48v-2.15Z"/>
      <path class="cls-1" d="M250.03,22.8c.76,0,1.45.13,2.08.39.63.26,1.16.66,1.61,1.19.96,1.13,1.44,2.74,1.44,4.85s-.48,3.72-1.44,4.84c-.89,1.05-2.11,1.58-3.67,1.58s-2.81-.53-3.71-1.58c-.95-1.1-1.43-2.72-1.43-4.84s.48-3.74,1.43-4.85c.9-1.05,2.13-1.58,3.69-1.58ZM252.11,25.96c-.49-.75-1.18-1.13-2.07-1.13s-1.58.38-2.07,1.13c-.49.75-.73,1.84-.73,3.26s.24,2.5.73,3.24,1.18,1.11,2.07,1.11,1.58-.37,2.07-1.11c.49-.74.73-1.82.73-3.24s-.24-2.5-.73-3.26Z"/>
      <path class="cls-1" d="M266.87,22.8c.76,0,1.45.13,2.08.39.63.26,1.16.66,1.61,1.19.96,1.13,1.44,2.74,1.44,4.85s-.48,3.72-1.44,4.84c-.89,1.05-2.11,1.58-3.67,1.58s-2.81-.53-3.71-1.58c-.95-1.1-1.43-2.72-1.43-4.84s.48-3.74,1.43-4.85c.9-1.05,2.13-1.58,3.69-1.58ZM268.95,25.96c-.49-.75-1.18-1.13-2.07-1.13s-1.58.38-2.07,1.13c-.49.75-.73,1.84-.73,3.26s.24,2.5.73,3.24,1.18,1.11,2.07,1.11,1.58-.37,2.07-1.11c.49-.74.73-1.82.73-3.24s-.24-2.5-.73-3.26Z"/>
      <path class="cls-1" d="M278.49,23.98c.95-.14,1.79-.48,2.51-1.01h1.69v12.41h-2.24v-9.73c-.65.32-1.3.48-1.96.48v-2.15Z"/>
      <path class="cls-1" d="M290.08,23.98c.95-.14,1.79-.48,2.51-1.01h1.69v12.41h-2.24v-9.73c-.65.32-1.3.48-1.96.48v-2.15Z"/>
      <path class="cls-1" d="M306.88,22.8c.76,0,1.45.13,2.08.39.63.26,1.16.66,1.61,1.19.96,1.13,1.44,2.74,1.44,4.85s-.48,3.72-1.44,4.84c-.89,1.05-2.11,1.58-3.67,1.58s-2.81-.53-3.71-1.58c-.95-1.1-1.43-2.72-1.43-4.84s.48-3.74,1.43-4.85c.9-1.05,2.13-1.58,3.69-1.58ZM308.96,25.96c-.49-.75-1.18-1.13-2.07-1.13s-1.58.38-2.07,1.13c-.49.75-.73,1.84-.73,3.26s.24,2.5.73,3.24,1.18,1.11,2.07,1.11,1.58-.37,2.07-1.11c.49-.74.73-1.82.73-3.24s-.24-2.5-.73-3.26Z"/>
      <path class="cls-1" d="M323.71,22.8c.76,0,1.45.13,2.08.39.63.26,1.16.66,1.61,1.19.96,1.13,1.44,2.74,1.44,4.85s-.48,3.72-1.44,4.84c-.89,1.05-2.11,1.58-3.67,1.58s-2.81-.53-3.71-1.58c-.95-1.1-1.43-2.72-1.43-4.84s.48-3.74,1.43-4.85c.9-1.05,2.13-1.58,3.69-1.58ZM325.8,25.96c-.49-.75-1.18-1.13-2.07-1.13s-1.58.38-2.07,1.13c-.49.75-.73,1.84-.73,3.26s.24,2.5.73,3.24,1.18,1.11,2.07,1.11,1.58-.37,2.07-1.11c.49-.74.73-1.82.73-3.24s-.24-2.5-.73-3.26Z"/>
      <path class="cls-1" d="M335.34,23.98c.95-.14,1.79-.48,2.51-1.01h1.69v12.41h-2.24v-9.73c-.65.32-1.3.48-1.96.48v-2.15Z"/>
      <path class="cls-1" d="M346.93,23.98c.95-.14,1.79-.48,2.51-1.01h1.69v12.41h-2.24v-9.73c-.65.32-1.3.48-1.96.48v-2.15Z"/>
      <path class="cls-1" d="M363.73,22.8c.76,0,1.45.13,2.08.39.63.26,1.16.66,1.61,1.19.96,1.13,1.44,2.74,1.44,4.85s-.48,3.72-1.44,4.84c-.89,1.05-2.11,1.58-3.67,1.58s-2.81-.53-3.71-1.58c-.95-1.1-1.43-2.72-1.43-4.84s.48-3.74,1.43-4.85c.9-1.05,2.13-1.58,3.69-1.58ZM365.81,25.96c-.49-.75-1.18-1.13-2.07-1.13s-1.58.38-2.07,1.13c-.49.75-.73,1.84-.73,3.26s.24,2.5.73,3.24,1.18,1.11,2.07,1.11,1.58-.37,2.07-1.11c.49-.74.73-1.82.73-3.24s-.24-2.5-.73-3.26Z"/>
      <path class="cls-1" d="M380.56,22.8c.76,0,1.45.13,2.08.39.63.26,1.16.66,1.61,1.19.96,1.13,1.44,2.74,1.44,4.85s-.48,3.72-1.44,4.84c-.89,1.05-2.11,1.58-3.67,1.58s-2.81-.53-3.71-1.58c-.95-1.1-1.43-2.72-1.43-4.84s.48-3.74,1.43-4.85c.9-1.05,2.13-1.58,3.69-1.58ZM382.64,25.96c-.49-.75-1.18-1.13-2.07-1.13s-1.58.38-2.07,1.13c-.49.75-.73,1.84-.73,3.26s.24,2.5.73,3.24,1.18,1.11,2.07,1.11,1.58-.37,2.07-1.11c.49-.74.73-1.82.73-3.24s-.24-2.5-.73-3.26Z"/>
      <path class="cls-1" d="M392.19,23.98c.95-.14,1.79-.48,2.51-1.01h1.69v12.41h-2.24v-9.73c-.65.32-1.3.48-1.96.48v-2.15Z"/>
      <path class="cls-1" d="M403.78,23.98c.95-.14,1.79-.48,2.51-1.01h1.69v12.41h-2.24v-9.73c-.65.32-1.3.48-1.96.48v-2.15Z"/>
      <path class="cls-1" d="M25.27,45.6c.76,0,1.45.13,2.08.39.63.26,1.16.66,1.61,1.19.96,1.13,1.44,2.74,1.44,4.85s-.48,3.72-1.44,4.84c-.89,1.05-2.11,1.58-3.67,1.58s-2.81-.53-3.71-1.58c-.95-1.1-1.42-2.72-1.42-4.84s.48-3.74,1.42-4.85c.9-1.05,2.13-1.58,3.69-1.58ZM27.35,48.76c-.49-.75-1.18-1.13-2.07-1.13s-1.58.38-2.07,1.13c-.49.75-.73,1.84-.73,3.26s.24,2.5.73,3.24,1.18,1.11,2.07,1.11,1.58-.37,2.07-1.11c.49-.74.73-1.82.73-3.24s-.24-2.5-.73-3.26Z"/>
      <path class="cls-1" d="M42.1,45.6c.76,0,1.45.13,2.08.39.63.26,1.16.66,1.61,1.19.96,1.13,1.44,2.74,1.44,4.85s-.48,3.72-1.44,4.84c-.89,1.05-2.11,1.58-3.67,1.58s-2.81-.53-3.71-1.58c-.95-1.1-1.42-2.72-1.42-4.84s.48-3.74,1.42-4.85c.9-1.05,2.13-1.58,3.69-1.58ZM44.19,48.76c-.49-.75-1.18-1.13-2.07-1.13s-1.58.38-2.07,1.13c-.49.75-.73,1.84-.73,3.26s.24,2.5.73,3.24,1.18,1.11,2.07,1.11,1.58-.37,2.07-1.11c.49-.74.73-1.82.73-3.24s-.24-2.5-.73-3.26Z"/>
      <path class="cls-1" d="M58.94,45.6c.76,0,1.45.13,2.08.39.63.26,1.16.66,1.61,1.19.96,1.13,1.44,2.74,1.44,4.85s-.48,3.72-1.44,4.84c-.89,1.05-2.11,1.58-3.67,1.58s-2.81-.53-3.71-1.58c-.95-1.1-1.42-2.72-1.42-4.84s.48-3.74,1.42-4.85c.9-1.05,2.13-1.58,3.69-1.58ZM61.02,48.76c-.49-.75-1.18-1.13-2.07-1.13s-1.58.38-2.07,1.13c-.49.75-.73,1.84-.73,3.26s.24,2.5.73,3.24,1.18,1.11,2.07,1.11,1.58-.37,2.07-1.11c.49-.74.73-1.82.73-3.24s-.24-2.5-.73-3.26Z"/>
      <path class="cls-1" d="M75.77,45.6c.76,0,1.45.13,2.08.39.63.26,1.16.66,1.61,1.19.96,1.13,1.44,2.74,1.44,4.85s-.48,3.72-1.44,4.84c-.89,1.05-2.11,1.58-3.67,1.58s-2.81-.53-3.71-1.58c-.95-1.1-1.42-2.72-1.42-4.84s.48-3.74,1.42-4.85c.9-1.05,2.13-1.58,3.69-1.58ZM77.85,48.76c-.49-.75-1.18-1.13-2.07-1.13s-1.58.38-2.07,1.13c-.49.75-.73,1.84-.73,3.26s.24,2.5.73,3.24,1.18,1.11,2.07,1.11,1.58-.37,2.07-1.11c.49-.74.73-1.82.73-3.24s-.24-2.5-.73-3.26Z"/>
      <path class="cls-1" d="M87.4,46.78c.95-.14,1.79-.48,2.51-1.01h1.69v12.41h-2.24v-9.73c-.65.32-1.3.48-1.96.48v-2.15Z"/>
      <path class="cls-1" d="M104.19,45.6c.76,0,1.45.13,2.08.39.63.26,1.16.66,1.61,1.19.96,1.13,1.44,2.74,1.44,4.85s-.48,3.72-1.44,4.84c-.89,1.05-2.11,1.58-3.67,1.58s-2.81-.53-3.71-1.58c-.95-1.1-1.42-2.72-1.42-4.84s.48-3.74,1.42-4.85c.9-1.05,2.13-1.58,3.69-1.58ZM106.27,48.76c-.49-.75-1.18-1.13-2.07-1.13s-1.58.38-2.07,1.13c-.49.75-.73,1.84-.73,3.26s.24,2.5.73,3.24,1.18,1.11,2.07,1.11,1.58-.37,2.07-1.11c.49-.74.73-1.82.73-3.24s-.24-2.5-.73-3.26Z"/>
      <path class="cls-1" d="M115.82,46.78c.95-.14,1.79-.48,2.51-1.01h1.69v12.41h-2.24v-9.73c-.65.32-1.3.48-1.96.48v-2.15Z"/>
      <path class="cls-1" d="M127.41,46.78c.95-.14,1.79-.48,2.51-1.01h1.69v12.41h-2.24v-9.73c-.65.32-1.3.48-1.96.48v-2.15Z"/>
      <path class="cls-1" d="M139,46.78c.95-.14,1.79-.48,2.51-1.01h1.69v12.41h-2.24v-9.73c-.65.32-1.3.48-1.96.48v-2.15Z"/>
      <path class="cls-1" d="M155.8,45.6c.76,0,1.45.13,2.08.39.63.26,1.16.66,1.61,1.19.96,1.13,1.44,2.74,1.44,4.85s-.48,3.72-1.44,4.84c-.89,1.05-2.11,1.58-3.67,1.58s-2.81-.53-3.71-1.58c-.95-1.1-1.42-2.72-1.42-4.84s.48-3.74,1.42-4.85c.9-1.05,2.13-1.58,3.69-1.58ZM157.88,48.76c-.49-.75-1.18-1.13-2.07-1.13s-1.58.38-2.07,1.13c-.49.75-.73,1.84-.73,3.26s.24,2.5.73,3.24,1.18,1.11,2.07,1.11,1.58-.37,2.07-1.11c.49-.74.73-1.82.73-3.24s-.24-2.5-.73-3.26Z"/>
      <path class="cls-1" d="M172.63,45.6c.76,0,1.45.13,2.08.39.63.26,1.16.66,1.61,1.19.96,1.13,1.44,2.74,1.44,4.85s-.48,3.72-1.44,4.84c-.89,1.05-2.11,1.58-3.67,1.58s-2.81-.53-3.71-1.58c-.95-1.1-1.42-2.72-1.42-4.84s.48-3.74,1.42-4.85c.9-1.05,2.13-1.58,3.69-1.58ZM174.71,48.76c-.49-.75-1.18-1.13-2.07-1.13s-1.58.38-2.07,1.13c-.49.75-.73,1.84-.73,3.26s.24,2.5.73,3.24,1.18,1.11,2.07,1.11,1.58-.37,2.07-1.11c.49-.74.73-1.82.73-3.24s-.24-2.5-.73-3.26Z"/>
      <path class="cls-1" d="M184.26,46.78c.95-.14,1.79-.48,2.51-1.01h1.69v12.41h-2.24v-9.73c-.65.32-1.3.48-1.96.48v-2.15Z"/>
      <path class="cls-1" d="M201.05,45.6c.76,0,1.45.13,2.08.39.63.26,1.16.66,1.61,1.19.96,1.13,1.44,2.74,1.44,4.85s-.48,3.72-1.44,4.84c-.89,1.05-2.11,1.58-3.67,1.58s-2.81-.53-3.71-1.58c-.95-1.1-1.42-2.72-1.42-4.84s.48-3.74,1.42-4.85c.9-1.05,2.13-1.58,3.69-1.58ZM203.13,48.76c-.49-.75-1.18-1.13-2.07-1.13s-1.58.38-2.07,1.13c-.49.75-.73,1.84-.73,3.26s.24,2.5.73,3.24,1.18,1.11,2.07,1.11,1.58-.37,2.07-1.11c.49-.74.73-1.82.73-3.24s-.24-2.5-.73-3.26Z"/>
      <path class="cls-1" d="M217.89,45.6c.76,0,1.45.13,2.08.39.63.26,1.16.66,1.61,1.19.96,1.13,1.44,2.74,1.44,4.85s-.48,3.72-1.44,4.84c-.89,1.05-2.11,1.58-3.67,1.58s-2.81-.53-3.71-1.58c-.95-1.1-1.43-2.72-1.43-4.84s.48-3.74,1.43-4.85c.9-1.05,2.13-1.58,3.69-1.58ZM219.97,48.76c-.49-.75-1.18-1.13-2.07-1.13s-1.58.38-2.07,1.13c-.49.75-.73,1.84-.73,3.26s.24,2.5.73,3.24,1.18,1.11,2.07,1.11,1.58-.37,2.07-1.11c.49-.74.73-1.82.73-3.24s-.24-2.5-.73-3.26Z"/>
      <path class="cls-1" d="M229.51,46.78c.95-.14,1.79-.48,2.51-1.01h1.69v12.41h-2.24v-9.73c-.65.32-1.3.48-1.96.48v-2.15Z"/>
      <path class="cls-1" d="M241.1,46.78c.95-.14,1.79-.48,2.51-1.01h1.69v12.41h-2.24v-9.73c-.65.32-1.3.48-1.96.48v-2.15Z"/>
      <path class="cls-1" d="M257.9,45.6c.76,0,1.45.13,2.08.39.63.26,1.16.66,1.61,1.19.96,1.13,1.44,2.74,1.44,4.85s-.48,3.72-1.44,4.84c-.89,1.05-2.11,1.58-3.67,1.58s-2.81-.53-3.71-1.58c-.95-1.1-1.43-2.72-1.43-4.84s.48-3.74,1.43-4.85c.9-1.05,2.13-1.58,3.69-1.58ZM259.98,48.76c-.49-.75-1.18-1.13-2.07-1.13s-1.58.38-2.07,1.13c-.49.75-.73,1.84-.73,3.26s.24,2.5.73,3.24,1.18,1.11,2.07,1.11,1.58-.37,2.07-1.11c.49-.74.73-1.82.73-3.24s-.24-2.5-.73-3.26Z"/>
      <path class="cls-1" d="M269.53,46.78c.95-.14,1.79-.48,2.51-1.01h1.69v12.41h-2.24v-9.73c-.65.32-1.3.48-1.96.48v-2.15Z"/>
      <path class="cls-1" d="M286.32,45.6c.76,0,1.45.13,2.08.39.63.26,1.16.66,1.61,1.19.96,1.13,1.44,2.74,1.44,4.85s-.48,3.72-1.44,4.84c-.89,1.05-2.11,1.58-3.67,1.58s-2.81-.53-3.71-1.58c-.95-1.1-1.43-2.72-1.43-4.84s.48-3.74,1.43-4.85c.9-1.05,2.13-1.58,3.69-1.58ZM288.4,48.76c-.49-.75-1.18-1.13-2.07-1.13s-1.58.38-2.07,1.13c-.49.75-.73,1.84-.73,3.26s.24,2.5.73,3.24,1.18,1.11,2.07,1.11,1.58-.37,2.07-1.11c.49-.74.73-1.82.73-3.24s-.24-2.5-.73-3.26Z"/>
      <path class="cls-1" d="M303.16,45.6c.76,0,1.45.13,2.08.39.63.26,1.16.66,1.61,1.19.96,1.13,1.44,2.74,1.44,4.85s-.48,3.72-1.44,4.84c-.89,1.05-2.11,1.58-3.67,1.58s-2.81-.53-3.71-1.58c-.95-1.1-1.43-2.72-1.43-4.84s.48-3.74,1.43-4.85c.9-1.05,2.13-1.58,3.69-1.58ZM305.24,48.76c-.49-.75-1.18-1.13-2.07-1.13s-1.58.38-2.07,1.13c-.49.75-.73,1.84-.73,3.26s.24,2.5.73,3.24,1.18,1.11,2.07,1.11,1.58-.37,2.07-1.11c.49-.74.73-1.82.73-3.24s-.24-2.5-.73-3.26Z"/>
      <path class="cls-1" d="M319.99,45.6c.76,0,1.45.13,2.08.39.63.26,1.16.66,1.61,1.19.96,1.13,1.44,2.74,1.44,4.85s-.48,3.72-1.44,4.84c-.89,1.05-2.11,1.58-3.67,1.58s-2.81-.53-3.71-1.58c-.95-1.1-1.43-2.72-1.43-4.84s.48-3.74,1.43-4.85c.9-1.05,2.13-1.58,3.69-1.58ZM322.07,48.76c-.49-.75-1.18-1.13-2.07-1.13s-1.58.38-2.07,1.13c-.49.75-.73,1.84-.73,3.26s.24,2.5.73,3.24,1.18,1.11,2.07,1.11,1.58-.37,2.07-1.11c.49-.74.73-1.82.73-3.24s-.24-2.5-.73-3.26Z"/>
      <path class="cls-1" d="M336.83,45.6c.76,0,1.45.13,2.08.39.63.26,1.16.66,1.61,1.19.96,1.13,1.44,2.74,1.44,4.85s-.48,3.72-1.44,4.84c-.89,1.05-2.11,1.58-3.67,1.58s-2.81-.53-3.71-1.58c-.95-1.1-1.43-2.72-1.43-4.84s.48-3.74,1.43-4.85c.9-1.05,2.13-1.58,3.69-1.58ZM338.91,48.76c-.49-.75-1.18-1.13-2.07-1.13s-1.58.38-2.07,1.13c-.49.75-.73,1.84-.73,3.26s.24,2.5.73,3.24,1.18,1.11,2.07,1.11,1.58-.37,2.07-1.11c.49-.74.73-1.82.73-3.24s-.24-2.5-.73-3.26Z"/>
      <path class="cls-1" d="M348.45,46.78c.95-.14,1.79-.48,2.51-1.01h1.69v12.41h-2.24v-9.73c-.65.32-1.3.48-1.96.48v-2.15Z"/>
      <path class="cls-1" d="M360.04,46.78c.95-.14,1.79-.48,2.51-1.01h1.69v12.41h-2.24v-9.73c-.65.32-1.3.48-1.96.48v-2.15Z"/>
      <path class="cls-1" d="M376.84,45.6c.76,0,1.45.13,2.08.39.63.26,1.16.66,1.61,1.19.96,1.13,1.44,2.74,1.44,4.85s-.48,3.72-1.44,4.84c-.89,1.05-2.11,1.58-3.67,1.58s-2.81-.53-3.71-1.58c-.95-1.1-1.43-2.72-1.43-4.84s.48-3.74,1.43-4.85c.9-1.05,2.13-1.58,3.69-1.58ZM378.92,48.76c-.49-.75-1.18-1.13-2.07-1.13s-1.58.38-2.07,1.13c-.49.75-.73,1.84-.73,3.26s.24,2.5.73,3.24,1.18,1.11,2.07,1.11,1.58-.37,2.07-1.11c.49-.74.73-1.82.73-3.24s-.24-2.5-.73-3.26Z"/>
      <path class="cls-1" d="M393.67,45.6c.76,0,1.45.13,2.08.39.63.26,1.16.66,1.61,1.19.96,1.13,1.44,2.74,1.44,4.85s-.48,3.72-1.44,4.84c-.89,1.05-2.11,1.58-3.67,1.58s-2.81-.53-3.71-1.58c-.95-1.1-1.43-2.72-1.43-4.84s.48-3.74,1.43-4.85c.9-1.05,2.13-1.58,3.69-1.58ZM395.75,48.76c-.49-.75-1.18-1.13-2.07-1.13s-1.58.38-2.07,1.13c-.49.75-.73,1.84-.73,3.26s.24,2.5.73,3.24,1.18,1.11,2.07,1.11,1.58-.37,2.07-1.11c.49-.74.73-1.82.73-3.24s-.24-2.5-.73-3.26Z"/>
      <path class="cls-1" d="M35.76,68.4c.76,0,1.45.13,2.08.39.63.26,1.16.66,1.61,1.19.96,1.13,1.44,2.74,1.44,4.85s-.48,3.72-1.44,4.84c-.89,1.05-2.11,1.58-3.67,1.58s-2.81-.53-3.71-1.58c-.95-1.1-1.42-2.72-1.42-4.84s.48-3.74,1.42-4.85c.9-1.05,2.13-1.58,3.69-1.58ZM37.84,71.56c-.49-.75-1.18-1.13-2.07-1.13s-1.58.38-2.07,1.13c-.49.75-.73,1.84-.73,3.26s.24,2.5.73,3.24,1.18,1.11,2.07,1.11,1.58-.37,2.07-1.11c.49-.74.73-1.82.73-3.24s-.24-2.5-.73-3.26Z"/>
      <path class="cls-1" d="M52.59,68.4c.76,0,1.45.13,2.08.39.63.26,1.16.66,1.61,1.19.96,1.13,1.44,2.74,1.44,4.85s-.48,3.72-1.44,4.84c-.89,1.05-2.11,1.58-3.67,1.58s-2.81-.53-3.71-1.58c-.95-1.1-1.42-2.72-1.42-4.84s.48-3.74,1.42-4.85c.9-1.05,2.13-1.58,3.69-1.58ZM54.67,71.56c-.49-.75-1.18-1.13-2.07-1.13s-1.58.38-2.07,1.13c-.49.75-.73,1.84-.73,3.26s.24,2.5.73,3.24,1.18,1.11,2.07,1.11,1.58-.37,2.07-1.11c.49-.74.73-1.82.73-3.24s-.24-2.5-.73-3.26Z"/>
      <path class="cls-1" d="M64.22,69.58c.95-.14,1.79-.48,2.51-1.01h1.69v12.41h-2.24v-9.73c-.65.32-1.3.48-1.96.48v-2.15Z"/>
      <path class="cls-1" d="M81.02,68.4c.76,0,1.45.13,2.08.39.63.26,1.16.66,1.61,1.19.96,1.13,1.44,2.74,1.44,4.85s-.48,3.72-1.44,4.84c-.89,1.05-2.11,1.58-3.67,1.58s-2.81-.53-3.71-1.58c-.95-1.1-1.42-2.72-1.42-4.84s.48-3.74,1.42-4.85c.9-1.05,2.13-1.58,3.69-1.58ZM83.1,71.56c-.49-.75-1.18-1.13-2.07-1.13s-1.58.38-2.07,1.13c-.49.75-.73,1.84-.73,3.26s.24,2.5.73,3.24,1.18,1.11,2.07,1.11,1.58-.37,2.07-1.11c.49-.74.73-1.82.73-3.24s-.24-2.5-.73-3.26Z"/>
      <path class="cls-1" d="M92.64,69.58c.95-.14,1.79-.48,2.51-1.01h1.69v12.41h-2.24v-9.73c-.65.32-1.3.48-1.96.48v-2.15Z"/>
      <path class="cls-1" d="M104.23,69.58c.95-.14,1.79-.48,2.51-1.01h1.69v12.41h-2.24v-9.73c-.65.32-1.3.48-1.96.48v-2.15Z"/>
      <path class="cls-1" d="M121.03,68.4c.76,0,1.45.13,2.08.39.63.26,1.16.66,1.61,1.19.96,1.13,1.44,2.74,1.44,4.85s-.48,3.72-1.44,4.84c-.89,1.05-2.11,1.58-3.67,1.58s-2.81-.53-3.71-1.58c-.95-1.1-1.42-2.72-1.42-4.84s.48-3.74,1.42-4.85c.9-1.05,2.13-1.58,3.69-1.58ZM123.11,71.56c-.49-.75-1.18-1.13-2.07-1.13s-1.58.38-2.07,1.13c-.49.75-.73,1.84-.73,3.26s.24,2.5.73,3.24,1.18,1.11,2.07,1.11,1.58-.37,2.07-1.11c.49-.74.73-1.82.73-3.24s-.24-2.5-.73-3.26Z"/>
      <path class="cls-1" d="M137.86,68.4c.76,0,1.45.13,2.08.39.63.26,1.16.66,1.61,1.19.96,1.13,1.44,2.74,1.44,4.85s-.48,3.72-1.44,4.84c-.89,1.05-2.11,1.58-3.67,1.58s-2.81-.53-3.71-1.58c-.95-1.1-1.42-2.72-1.42-4.84s.48-3.74,1.42-4.85c.9-1.05,2.13-1.58,3.69-1.58ZM139.94,71.56c-.49-.75-1.18-1.13-2.07-1.13s-1.58.38-2.07,1.13c-.49.75-.73,1.84-.73,3.26s.24,2.5.73,3.24,1.18,1.11,2.07,1.11,1.58-.37,2.07-1.11c.49-.74.73-1.82.73-3.24s-.24-2.5-.73-3.26Z"/>
      <path class="cls-1" d="M154.69,68.4c.76,0,1.45.13,2.08.39.63.26,1.16.66,1.61,1.19.96,1.13,1.44,2.74,1.44,4.85s-.48,3.72-1.44,4.84c-.89,1.05-2.11,1.58-3.67,1.58s-2.81-.53-3.71-1.58c-.95-1.1-1.42-2.72-1.42-4.84s.48-3.74,1.42-4.85c.9-1.05,2.13-1.58,3.69-1.58ZM156.77,71.56c-.49-.75-1.18-1.13-2.07-1.13s-1.58.38-2.07,1.13c-.49.75-.73,1.84-.73,3.26s.24,2.5.73,3.24,1.18,1.11,2.07,1.11,1.58-.37,2.07-1.11c.49-.74.73-1.82.73-3.24s-.24-2.5-.73-3.26Z"/>
      <path class="cls-1" d="M166.32,69.58c.95-.14,1.79-.48,2.51-1.01h1.69v12.41h-2.24v-9.73c-.65.32-1.3.48-1.96.48v-2.15Z"/>
      <path class="cls-1" d="M177.91,69.58c.95-.14,1.79-.48,2.51-1.01h1.69v12.41h-2.24v-9.73c-.65.32-1.3.48-1.96.48v-2.15Z"/>
      <path class="cls-1" d="M194.71,68.4c.76,0,1.45.13,2.08.39.63.26,1.16.66,1.61,1.19.96,1.13,1.44,2.74,1.44,4.85s-.48,3.72-1.44,4.84c-.89,1.05-2.11,1.58-3.67,1.58s-2.81-.53-3.71-1.58c-.95-1.1-1.42-2.72-1.42-4.84s.48-3.74,1.42-4.85c.9-1.05,2.13-1.58,3.69-1.58ZM196.79,71.56c-.49-.75-1.18-1.13-2.07-1.13s-1.58.38-2.07,1.13c-.49.75-.73,1.84-.73,3.26s.24,2.5.73,3.24,1.18,1.11,2.07,1.11,1.58-.37,2.07-1.11c.49-.74.73-1.82.73-3.24s-.24-2.5-.73-3.26Z"/>
      <path class="cls-1" d="M206.33,69.58c.95-.14,1.79-.48,2.51-1.01h1.69v12.41h-2.24v-9.73c-.65.32-1.3.48-1.96.48v-2.15Z"/>
      <path class="cls-1" d="M217.92,69.58c.95-.14,1.79-.48,2.51-1.01h1.69v12.41h-2.24v-9.73c-.65.32-1.3.48-1.96.48v-2.15Z"/>
      <path class="cls-1" d="M234.72,68.4c.76,0,1.45.13,2.08.39.63.26,1.16.66,1.61,1.19.96,1.13,1.44,2.74,1.44,4.85s-.48,3.72-1.44,4.84c-.89,1.05-2.11,1.58-3.67,1.58s-2.81-.53-3.71-1.58c-.95-1.1-1.43-2.72-1.43-4.84s.48-3.74,1.43-4.85c.9-1.05,2.13-1.58,3.69-1.58ZM236.8,71.56c-.49-.75-1.18-1.13-2.07-1.13s-1.58.38-2.07,1.13c-.49.75-.73,1.84-.73,3.26s.24,2.5.73,3.24,1.18,1.11,2.07,1.11,1.58-.37,2.07-1.11c.49-.74.73-1.82.73-3.24s-.24-2.5-.73-3.26Z"/>
      <path class="cls-1" d="M246.35,69.58c.95-.14,1.79-.48,2.51-1.01h1.69v12.41h-2.24v-9.73c-.65.32-1.3.48-1.96.48v-2.15Z"/>
      <path class="cls-1" d="M263.14,68.4c.76,0,1.45.13,2.08.39.63.26,1.16.66,1.61,1.19.96,1.13,1.44,2.74,1.44,4.85s-.48,3.72-1.44,4.84c-.89,1.05-2.11,1.58-3.67,1.58s-2.81-.53-3.71-1.58c-.95-1.1-1.43-2.72-1.43-4.84s.48-3.74,1.43-4.85c.9-1.05,2.13-1.58,3.69-1.58ZM265.22,71.56c-.49-.75-1.18-1.13-2.07-1.13s-1.58.38-2.07,1.13c-.49.75-.73,1.84-.73,3.26s.24,2.5.73,3.24,1.18,1.11,2.07,1.11,1.58-.37,2.07-1.11c.49-.74.73-1.82.73-3.24s-.24-2.5-.73-3.26Z"/>
      <path class="cls-1" d="M274.77,69.58c.95-.14,1.79-.48,2.51-1.01h1.69v12.41h-2.24v-9.73c-.65.32-1.3.48-1.96.48v-2.15Z"/>
      <path class="cls-1" d="M286.36,69.58c.95-.14,1.79-.48,2.51-1.01h1.69v12.41h-2.24v-9.73c-.65.32-1.3.48-1.96.48v-2.15Z"/>
      <path class="cls-1" d="M303.16,68.4c.76,0,1.45.13,2.08.39.63.26,1.16.66,1.61,1.19.96,1.13,1.44,2.74,1.44,4.85s-.48,3.72-1.44,4.84c-.89,1.05-2.11,1.58-3.67,1.58s-2.81-.53-3.71-1.58c-.95-1.1-1.43-2.72-1.43-4.84s.48-3.74,1.43-4.85c.9-1.05,2.13-1.58,3.69-1.58ZM305.24,71.56c-.49-.75-1.18-1.13-2.07-1.13s-1.58.38-2.07,1.13c-.49.75-.73,1.84-.73,3.26s.24,2.5.73,3.24,1.18,1.11,2.07,1.11,1.58-.37,2.07-1.11c.49-.74.73-1.82.73-3.24s-.24-2.5-.73-3.26Z"/>
      <path class="cls-1" d="M314.78,69.58c.95-.14,1.79-.48,2.51-1.01h1.69v12.41h-2.24v-9.73c-.65.32-1.3.48-1.96.48v-2.15Z"/>
      <path class="cls-1" d="M326.37,69.58c.95-.14,1.79-.48,2.51-1.01h1.69v12.41h-2.24v-9.73c-.65.32-1.3.48-1.96.48v-2.15Z"/>
      <path class="cls-1" d="M343.17,68.4c.76,0,1.45.13,2.08.39.63.26,1.16.66,1.61,1.19.96,1.13,1.44,2.74,1.44,4.85s-.48,3.72-1.44,4.84c-.89,1.05-2.11,1.58-3.67,1.58s-2.81-.53-3.71-1.58c-.95-1.1-1.43-2.72-1.43-4.84s.48-3.74,1.43-4.85c.9-1.05,2.13-1.58,3.69-1.58ZM345.25,71.56c-.49-.75-1.18-1.13-2.07-1.13s-1.58.38-2.07,1.13c-.49.75-.73,1.84-.73,3.26s.24,2.5.73,3.24,1.18,1.11,2.07,1.11,1.58-.37,2.07-1.11c.49-.74.73-1.82.73-3.24s-.24-2.5-.73-3.26Z"/>
      <path class="cls-1" d="M360,68.4c.76,0,1.45.13,2.08.39.63.26,1.16.66,1.61,1.19.96,1.13,1.44,2.74,1.44,4.85s-.48,3.72-1.44,4.84c-.89,1.05-2.11,1.58-3.67,1.58s-2.81-.53-3.71-1.58c-.95-1.1-1.43-2.72-1.43-4.84s.48-3.74,1.43-4.85c.9-1.05,2.13-1.58,3.69-1.58ZM362.09,71.56c-.49-.75-1.18-1.13-2.07-1.13s-1.58.38-2.07,1.13c-.49.75-.73,1.84-.73,3.26s.24,2.5.73,3.24,1.18,1.11,2.07,1.11,1.58-.37,2.07-1.11c.49-.74.73-1.82.73-3.24s-.24-2.5-.73-3.26Z"/>
      <path class="cls-1" d="M371.63,69.58c.95-.14,1.79-.48,2.51-1.01h1.69v12.41h-2.24v-9.73c-.65.32-1.3.48-1.96.48v-2.15Z"/>
      <path class="cls-1" d="M383.22,69.58c.95-.14,1.79-.48,2.51-1.01h1.69v12.41h-2.24v-9.73c-.65.32-1.3.48-1.96.48v-2.15Z"/>
      <path class="cls-1" d="M42.1,91.2c.76,0,1.45.13,2.08.39.63.26,1.16.66,1.61,1.19.96,1.13,1.44,2.74,1.44,4.85s-.48,3.72-1.44,4.84c-.89,1.05-2.11,1.58-3.67,1.58s-2.81-.53-3.71-1.58c-.95-1.1-1.42-2.72-1.42-4.84s.48-3.74,1.42-4.85c.9-1.05,2.13-1.58,3.69-1.58ZM44.19,94.36c-.49-.75-1.18-1.13-2.07-1.13s-1.58.38-2.07,1.13c-.49.75-.73,1.84-.73,3.26s.24,2.5.73,3.24,1.18,1.11,2.07,1.11,1.58-.37,2.07-1.11c.49-.74.73-1.82.73-3.24s-.24-2.5-.73-3.26Z"/>
      <path class="cls-1" d="M58.94,91.2c.76,0,1.45.13,2.08.39.63.26,1.16.66,1.61,1.19.96,1.13,1.44,2.74,1.44,4.85s-.48,3.72-1.44,4.84c-.89,1.05-2.11,1.58-3.67,1.58s-2.81-.53-3.71-1.58c-.95-1.1-1.42-2.72-1.42-4.84s.48-3.74,1.42-4.85c.9-1.05,2.13-1.58,3.69-1.58ZM61.02,94.36c-.49-.75-1.18-1.13-2.07-1.13s-1.58.38-2.07,1.13c-.49.75-.73,1.84-.73,3.26s.24,2.5.73,3.24,1.18,1.11,2.07,1.11,1.58-.37,2.07-1.11c.49-.74.73-1.82.73-3.24s-.24-2.5-.73-3.26Z"/>
      <path class="cls-1" d="M70.57,92.38c.95-.14,1.79-.48,2.51-1.01h1.69v12.41h-2.24v-9.73c-.65.32-1.3.48-1.96.48v-2.15Z"/>
      <path class="cls-1" d="M82.15,92.38c.95-.14,1.79-.48,2.51-1.01h1.69v12.41h-2.24v-9.73c-.65.32-1.3.48-1.96.48v-2.15Z"/>
      <path class="cls-1" d="M98.95,91.2c.76,0,1.45.13,2.08.39.63.26,1.16.66,1.61,1.19.96,1.13,1.44,2.74,1.44,4.85s-.48,3.72-1.44,4.84c-.89,1.05-2.11,1.58-3.67,1.58s-2.81-.53-3.71-1.58c-.95-1.1-1.42-2.72-1.42-4.84s.48-3.74,1.42-4.85c.9-1.05,2.13-1.58,3.69-1.58ZM101.03,94.36c-.49-.75-1.18-1.13-2.07-1.13s-1.58.38-2.07,1.13c-.49.75-.73,1.84-.73,3.26s.24,2.5.73,3.24,1.18,1.11,2.07,1.11,1.58-.37,2.07-1.11c.49-.74.73-1.82.73-3.24s-.24-2.5-.73-3.26Z"/>
      <path class="cls-1" d="M115.78,91.2c.76,0,1.45.13,2.08.39.63.26,1.16.66,1.61,1.19.96,1.13,1.44,2.74,1.44,4.85s-.48,3.72-1.44,4.84c-.89,1.05-2.11,1.58-3.67,1.58s-2.81-.53-3.71-1.58c-.95-1.1-1.42-2.72-1.42-4.84s.48-3.74,1.42-4.85c.9-1.05,2.13-1.58,3.69-1.58ZM117.86,94.36c-.49-.75-1.18-1.13-2.07-1.13s-1.58.38-2.07,1.13c-.49.75-.73,1.84-.73,3.26s.24,2.5.73,3.24,1.18,1.11,2.07,1.11,1.58-.37,2.07-1.11c.49-.74.73-1.82.73-3.24s-.24-2.5-.73-3.26Z"/>
      <path class="cls-1" d="M132.62,91.2c.76,0,1.45.13,2.08.39.63.26,1.16.66,1.61,1.19.96,1.13,1.44,2.74,1.44,4.85s-.48,3.72-1.44,4.84c-.89,1.05-2.11,1.58-3.67,1.58s-2.81-.53-3.71-1.58c-.95-1.1-1.42-2.72-1.42-4.84s.48-3.74,1.42-4.85c.9-1.05,2.13-1.58,3.69-1.58ZM134.7,94.36c-.49-.75-1.18-1.13-2.07-1.13s-1.58.38-2.07,1.13c-.49.75-.73,1.84-.73,3.26s.24,2.5.73,3.24,1.18,1.11,2.07,1.11,1.58-.37,2.07-1.11c.49-.74.73-1.82.73-3.24s-.24-2.5-.73-3.26Z"/>
      <path class="cls-1" d="M149.45,91.2c.76,0,1.45.13,2.08.39.63.26,1.16.66,1.61,1.19.96,1.13,1.44,2.74,1.44,4.85s-.48,3.72-1.44,4.84c-.89,1.05-2.11,1.58-3.67,1.58s-2.81-.53-3.71-1.58c-.95-1.1-1.42-2.72-1.42-4.84s.48-3.74,1.42-4.85c.9-1.05,2.13-1.58,3.69-1.58ZM151.53,94.36c-.49-.75-1.18-1.13-2.07-1.13s-1.58.38-2.07,1.13c-.49.75-.73,1.84-.73,3.26s.24,2.5.73,3.24,1.18,1.11,2.07,1.11,1.58-.37,2.07-1.11c.49-.74.73-1.82.73-3.24s-.24-2.5-.73-3.26Z"/>
      <path class="cls-1" d="M161.08,92.38c.95-.14,1.79-.48,2.51-1.01h1.69v12.41h-2.24v-9.73c-.65.32-1.3.48-1.96.48v-2.15Z"/>
      <path class="cls-1" d="M177.87,91.2c.76,0,1.45.13,2.08.39.63.26,1.16.66,1.61,1.19.96,1.13,1.44,2.74,1.44,4.85s-.48,3.72-1.44,4.84c-.89,1.05-2.11,1.58-3.67,1.58s-2.81-.53-3.71-1.58c-.95-1.1-1.42-2.72-1.42-4.84s.48-3.74,1.42-4.85c.9-1.05,2.13-1.58,3.69-1.58ZM179.95,94.36c-.49-.75-1.18-1.13-2.07-1.13s-1.58.38-2.07,1.13c-.49.75-.73,1.84-.73,3.26s.24,2.5.73,3.24,1.18,1.11,2.07,1.11,1.58-.37,2.07-1.11c.49-.74.73-1.82.73-3.24s-.24-2.5-.73-3.26Z"/>
      <path class="cls-1" d="M189.5,92.38c.95-.14,1.79-.48,2.51-1.01h1.69v12.41h-2.24v-9.73c-.65.32-1.3.48-1.96.48v-2.15Z"/>
      <path class="cls-1" d="M201.09,92.38c.95-.14,1.79-.48,2.51-1.01h1.69v12.41h-2.24v-9.73c-.65.32-1.3.48-1.96.48v-2.15Z"/>
      <path class="cls-1" d="M212.68,92.38c.95-.14,1.79-.48,2.51-1.01h1.69v12.41h-2.24v-9.73c-.65.32-1.3.48-1.96.48v-2.15Z"/>
      <path class="cls-1" d="M229.48,91.2c.76,0,1.45.13,2.08.39.63.26,1.16.66,1.61,1.19.96,1.13,1.44,2.74,1.44,4.85s-.48,3.72-1.44,4.84c-.89,1.05-2.11,1.58-3.67,1.58s-2.81-.53-3.71-1.58c-.95-1.1-1.43-2.72-1.43-4.84s.48-3.74,1.43-4.85c.9-1.05,2.13-1.58,3.69-1.58ZM231.56,94.36c-.49-.75-1.18-1.13-2.07-1.13s-1.58.38-2.07,1.13c-.49.75-.73,1.84-.73,3.26s.24,2.5.73,3.24,1.18,1.11,2.07,1.11,1.58-.37,2.07-1.11c.49-.74.73-1.82.73-3.24s-.24-2.5-.73-3.26Z"/>
      <path class="cls-1" d="M246.31,91.2c.76,0,1.45.13,2.08.39.63.26,1.16.66,1.61,1.19.96,1.13,1.44,2.74,1.44,4.85s-.48,3.72-1.44,4.84c-.89,1.05-2.11,1.58-3.67,1.58s-2.81-.53-3.71-1.58c-.95-1.1-1.43-2.72-1.43-4.84s.48-3.74,1.43-4.85c.9-1.05,2.13-1.58,3.69-1.58ZM248.39,94.36c-.49-.75-1.18-1.13-2.07-1.13s-1.58.38-2.07,1.13c-.49.75-.73,1.84-.73,3.26s.24,2.5.73,3.24,1.18,1.11,2.07,1.11,1.58-.37,2.07-1.11c.49-.74.73-1.82.73-3.24s-.24-2.5-.73-3.26Z"/>
      <path class="cls-1" d="M257.94,92.38c.95-.14,1.79-.48,2.51-1.01h1.69v12.41h-2.24v-9.73c-.65.32-1.3.48-1.96.48v-2.15Z"/>
      <path class="cls-1" d="M274.73,91.2c.76,0,1.45.13,2.08.39.63.26,1.16.66,1.61,1.19.96,1.13,1.44,2.74,1.44,4.85s-.48,3.72-1.44,4.84c-.89,1.05-2.11,1.58-3.67,1.58s-2.81-.53-3.71-1.58c-.95-1.1-1.43-2.72-1.43-4.84s.48-3.74,1.43-4.85c.9-1.05,2.13-1.58,3.69-1.58ZM276.81,94.36c-.49-.75-1.18-1.13-2.07-1.13s-1.58.38-2.07,1.13c-.49.75-.73,1.84-.73,3.26s.24,2.5.73,3.24,1.18,1.11,2.07,1.11,1.58-.37,2.07-1.11c.49-.74.73-1.82.73-3.24s-.24-2.5-.73-3.26Z"/>
      <path class="cls-1" d="M291.57,91.2c.76,0,1.45.13,2.08.39.63.26,1.16.66,1.61,1.19.96,1.13,1.44,2.74,1.44,4.85s-.48,3.72-1.44,4.84c-.89,1.05-2.11,1.58-3.67,1.58s-2.81-.53-3.71-1.58c-.95-1.1-1.43-2.72-1.43-4.84s.48-3.74,1.43-4.85c.9-1.05,2.13-1.58,3.69-1.58ZM293.65,94.36c-.49-.75-1.18-1.13-2.07-1.13s-1.58.38-2.07,1.13c-.49.75-.73,1.84-.73,3.26s.24,2.5.73,3.24,1.18,1.11,2.07,1.11,1.58-.37,2.07-1.11c.49-.74.73-1.82.73-3.24s-.24-2.5-.73-3.26Z"/>
      <path class="cls-1" d="M303.2,92.38c.95-.14,1.79-.48,2.51-1.01h1.69v12.41h-2.24v-9.73c-.65.32-1.3.48-1.96.48v-2.15Z"/>
      <path class="cls-1" d="M314.79,92.38c.95-.14,1.79-.48,2.51-1.01h1.69v12.41h-2.24v-9.73c-.65.32-1.3.48-1.96.48v-2.15Z"/>
      <path class="cls-1" d="M331.58,91.2c.76,0,1.45.13,2.08.39.63.26,1.16.66,1.61,1.19.96,1.13,1.44,2.74,1.44,4.85s-.48,3.72-1.44,4.84c-.89,1.05-2.11,1.58-3.67,1.58s-2.81-.53-3.71-1.58c-.95-1.1-1.43-2.72-1.43-4.84s.48-3.74,1.43-4.85c.9-1.05,2.13-1.58,3.69-1.58ZM333.66,94.36c-.49-.75-1.18-1.13-2.07-1.13s-1.58.38-2.07,1.13c-.49.75-.73,1.84-.73,3.26s.24,2.5.73,3.24,1.18,1.11,2.07,1.11,1.58-.37,2.07-1.11c.49-.74.73-1.82.73-3.24s-.24-2.5-.73-3.26Z"/>
      <path class="cls-1" d="M348.42,91.2c.76,0,1.45.13,2.08.39.63.26,1.16.66,1.61,1.19.96,1.13,1.44,2.74,1.44,4.85s-.48,3.72-1.44,4.84c-.89,1.05-2.11,1.58-3.67,1.58s-2.81-.53-3.71-1.58c-.95-1.1-1.43-2.72-1.43-4.84s.48-3.74,1.43-4.85c.9-1.05,2.13-1.58,3.69-1.58ZM350.5,94.36c-.49-.75-1.18-1.13-2.07-1.13s-1.58.38-2.07,1.13c-.49.75-.73,1.84-.73,3.26s.24,2.5.73,3.24,1.18,1.11,2.07,1.11,1.58-.37,2.07-1.11c.49-.74.73-1.82.73-3.24s-.24-2.5-.73-3.26Z"/>
      <path class="cls-1" d="M365.25,91.2c.76,0,1.45.13,2.08.39.63.26,1.16.66,1.61,1.19.96,1.13,1.44,2.74,1.44,4.85s-.48,3.72-1.44,4.84c-.89,1.05-2.11,1.58-3.67,1.58s-2.81-.53-3.71-1.58c-.95-1.1-1.43-2.72-1.43-4.84s.48-3.74,1.43-4.85c.9-1.05,2.13-1.58,3.69-1.58ZM367.33,94.36c-.49-.75-1.18-1.13-2.07-1.13s-1.58.38-2.07,1.13c-.49.75-.73,1.84-.73,3.26s.24,2.5.73,3.24,1.18,1.11,2.07,1.11,1.58-.37,2.07-1.11c.49-.74.73-1.82.73-3.24s-.24-2.5-.73-3.26Z"/>
      <path class="cls-1" d="M376.88,92.38c.95-.14,1.79-.48,2.51-1.01h1.69v12.41h-2.24v-9.73c-.65.32-1.3.48-1.96.48v-2.15Z"/>
      <path class="cls-1" d="M42.3,115.18c.95-.14,1.79-.48,2.51-1.01h1.69v12.41h-2.24v-9.73c-.65.32-1.3.48-1.96.48v-2.15Z"/>
      <path class="cls-1" d="M59.1,114c.76,0,1.45.13,2.08.39.63.26,1.16.66,1.61,1.19.96,1.13,1.44,2.74,1.44,4.85s-.48,3.72-1.44,4.84c-.89,1.05-2.11,1.58-3.67,1.58s-2.81-.53-3.71-1.58c-.95-1.1-1.42-2.72-1.42-4.84s.48-3.74,1.42-4.85c.9-1.05,2.13-1.58,3.69-1.58ZM61.18,117.16c-.49-.75-1.18-1.13-2.07-1.13s-1.58.38-2.07,1.13c-.49.75-.73,1.84-.73,3.26s.24,2.5.73,3.24,1.18,1.11,2.07,1.11,1.58-.37,2.07-1.11c.49-.74.73-1.82.73-3.24s-.24-2.5-.73-3.26Z"/>
      <path class="cls-1" d="M70.72,115.18c.95-.14,1.79-.48,2.51-1.01h1.69v12.41h-2.24v-9.73c-.65.32-1.3.48-1.96.48v-2.15Z"/>
      <path class="cls-1" d="M82.31,115.18c.95-.14,1.79-.48,2.51-1.01h1.69v12.41h-2.24v-9.73c-.65.32-1.3.48-1.96.48v-2.15Z"/>
      <path class="cls-1" d="M99.11,114c.76,0,1.45.13,2.08.39.63.26,1.16.66,1.61,1.19.96,1.13,1.44,2.74,1.44,4.85s-.48,3.72-1.44,4.84c-.89,1.05-2.11,1.58-3.67,1.58s-2.81-.53-3.71-1.58c-.95-1.1-1.42-2.72-1.42-4.84s.48-3.74,1.42-4.85c.9-1.05,2.13-1.58,3.69-1.58ZM101.19,117.16c-.49-.75-1.18-1.13-2.07-1.13s-1.58.38-2.07,1.13c-.49.75-.73,1.84-.73,3.26s.24,2.5.73,3.24,1.18,1.11,2.07,1.11,1.58-.37,2.07-1.11c.49-.74.73-1.82.73-3.24s-.24-2.5-.73-3.26Z"/>
      <path class="cls-1" d="M110.73,115.18c.95-.14,1.79-.48,2.51-1.01h1.69v12.41h-2.24v-9.73c-.65.32-1.3.48-1.96.48v-2.15Z"/>
      <path class="cls-1" d="M122.32,115.18c.95-.14,1.79-.48,2.51-1.01h1.69v12.41h-2.24v-9.73c-.65.32-1.3.48-1.96.48v-2.15Z"/>
      <path class="cls-1" d="M133.91,115.18c.95-.14,1.79-.48,2.51-1.01h1.69v12.41h-2.24v-9.73c-.65.32-1.3.48-1.96.48v-2.15Z"/>
      <path class="cls-1" d="M145.5,115.18c.95-.14,1.79-.48,2.51-1.01h1.69v12.41h-2.24v-9.73c-.65.32-1.3.48-1.96.48v-2.15Z"/>
      <path class="cls-1" d="M162.3,114c.76,0,1.45.13,2.08.39.63.26,1.16.66,1.61,1.19.96,1.13,1.44,2.74,1.44,4.85s-.48,3.72-1.44,4.84c-.89,1.05-2.11,1.58-3.67,1.58s-2.81-.53-3.71-1.58c-.95-1.1-1.42-2.72-1.42-4.84s.48-3.74,1.42-4.85c.9-1.05,2.13-1.58,3.69-1.58ZM164.38,117.16c-.49-.75-1.18-1.13-2.07-1.13s-1.58.38-2.07,1.13c-.49.75-.73,1.84-.73,3.26s.24,2.5.73,3.24,1.18,1.11,2.07,1.11,1.58-.37,2.07-1.11c.49-.74.73-1.82.73-3.24s-.24-2.5-.73-3.26Z"/>
      <path class="cls-1" d="M173.93,115.18c.95-.14,1.79-.48,2.51-1.01h1.69v12.41h-2.24v-9.73c-.65.32-1.3.48-1.96.48v-2.15Z"/>
      <path class="cls-1" d="M242.99,115.18c.95-.14,1.79-.48,2.51-1.01h1.69v12.41h-2.24v-9.73c-.65.32-1.3.48-1.96.48v-2.15Z"/>
      <path class="cls-1" d="M259.79,114c.76,0,1.45.13,2.08.39.63.26,1.16.66,1.61,1.19.96,1.13,1.44,2.74,1.44,4.85s-.48,3.72-1.44,4.84c-.89,1.05-2.11,1.58-3.67,1.58s-2.81-.53-3.71-1.58c-.95-1.1-1.43-2.72-1.43-4.84s.48-3.74,1.43-4.85c.9-1.05,2.13-1.58,3.69-1.58ZM261.87,117.16c-.49-.75-1.18-1.13-2.07-1.13s-1.58.38-2.07,1.13c-.49.75-.73,1.84-.73,3.26s.24,2.5.73,3.24,1.18,1.11,2.07,1.11,1.58-.37,2.07-1.11c.49-.74.73-1.82.73-3.24s-.24-2.5-.73-3.26Z"/>
      <path class="cls-1" d="M271.42,115.18c.95-.14,1.79-.48,2.51-1.01h1.69v12.41h-2.24v-9.73c-.65.32-1.3.48-1.96.48v-2.15Z"/>
      <path class="cls-1" d="M283.01,115.18c.95-.14,1.79-.48,2.51-1.01h1.69v12.41h-2.24v-9.73c-.65.32-1.3.48-1.96.48v-2.15Z"/>
      <path class="cls-1" d="M294.6,115.18c.95-.14,1.79-.48,2.51-1.01h1.69v12.41h-2.24v-9.73c-.65.32-1.3.48-1.96.48v-2.15Z"/>
      <path class="cls-1" d="M311.39,114c.76,0,1.45.13,2.08.39.63.26,1.16.66,1.61,1.19.96,1.13,1.44,2.74,1.44,4.85s-.48,3.72-1.44,4.84c-.89,1.05-2.11,1.58-3.67,1.58s-2.81-.53-3.71-1.58c-.95-1.1-1.43-2.72-1.43-4.84s.48-3.74,1.43-4.85c.9-1.05,2.13-1.58,3.69-1.58ZM313.48,117.16c-.49-.75-1.18-1.13-2.07-1.13s-1.58.38-2.07,1.13c-.49.75-.73,1.84-.73,3.26s.24,2.5.73,3.24,1.18,1.11,2.07,1.11,1.58-.37,2.07-1.11c.49-.74.73-1.82.73-3.24s-.24-2.5-.73-3.26Z"/>
      <path class="cls-1" d="M328.23,114c.76,0,1.45.13,2.08.39.63.26,1.16.66,1.61,1.19.96,1.13,1.44,2.74,1.44,4.85s-.48,3.72-1.44,4.84c-.89,1.05-2.11,1.58-3.67,1.58s-2.81-.53-3.71-1.58c-.95-1.1-1.43-2.72-1.43-4.84s.48-3.74,1.43-4.85c.9-1.05,2.13-1.58,3.69-1.58ZM330.31,117.16c-.49-.75-1.18-1.13-2.07-1.13s-1.58.38-2.07,1.13c-.49.75-.73,1.84-.73,3.26s.24,2.5.73,3.24,1.18,1.11,2.07,1.11,1.58-.37,2.07-1.11c.49-.74.73-1.82.73-3.24s-.24-2.5-.73-3.26Z"/>
      <path class="cls-1" d="M339.86,115.18c.95-.14,1.79-.48,2.51-1.01h1.69v12.41h-2.24v-9.73c-.65.32-1.3.48-1.96.48v-2.15Z"/>
      <path class="cls-1" d="M351.45,115.18c.95-.14,1.79-.48,2.51-1.01h1.69v12.41h-2.24v-9.73c-.65.32-1.3.48-1.96.48v-2.15Z"/>
      <path class="cls-1" d="M368.24,114c.76,0,1.45.13,2.08.39.63.26,1.16.66,1.61,1.19.96,1.13,1.44,2.74,1.44,4.85s-.48,3.72-1.44,4.84c-.89,1.05-2.11,1.58-3.67,1.58s-2.81-.53-3.71-1.58c-.95-1.1-1.43-2.72-1.43-4.84s.48-3.74,1.43-4.85c.9-1.05,2.13-1.58,3.69-1.58ZM370.32,117.16c-.49-.75-1.18-1.13-2.07-1.13s-1.58.38-2.07,1.13c-.49.75-.73,1.84-.73,3.26s.24,2.5.73,3.24,1.18,1.11,2.07,1.11,1.58-.37,2.07-1.11c.49-.74.73-1.82.73-3.24s-.24-2.5-.73-3.26Z"/>
      <path class="cls-1" d="M52.09,136.8c.76,0,1.45.13,2.08.39.63.26,1.16.66,1.61,1.19.96,1.13,1.44,2.74,1.44,4.85s-.48,3.72-1.44,4.84c-.89,1.05-2.11,1.58-3.67,1.58s-2.81-.53-3.71-1.58c-.95-1.1-1.42-2.72-1.42-4.84s.48-3.74,1.42-4.85c.9-1.05,2.13-1.58,3.69-1.58ZM54.17,139.96c-.49-.75-1.18-1.13-2.07-1.13s-1.58.38-2.07,1.13c-.49.75-.73,1.84-.73,3.26s.24,2.5.73,3.24,1.18,1.11,2.07,1.11,1.58-.37,2.07-1.11c.49-.74.73-1.82.73-3.24s-.24-2.5-.73-3.26Z"/>
      <path class="cls-1" d="M63.71,137.98c.95-.14,1.79-.48,2.51-1.01h1.69v12.41h-2.24v-9.73c-.65.32-1.3.48-1.96.48v-2.15Z"/>
      <path class="cls-1" d="M75.3,137.98c.95-.14,1.79-.48,2.51-1.01h1.69v12.41h-2.24v-9.73c-.65.32-1.3.48-1.96.48v-2.15Z"/>
      <path class="cls-1" d="M92.1,136.8c.76,0,1.45.13,2.08.39.63.26,1.16.66,1.61,1.19.96,1.13,1.44,2.74,1.44,4.85s-.48,3.72-1.44,4.84c-.89,1.05-2.11,1.58-3.67,1.58s-2.81-.53-3.71-1.58c-.95-1.1-1.42-2.72-1.42-4.84s.48-3.74,1.42-4.85c.9-1.05,2.13-1.58,3.69-1.58ZM94.18,139.96c-.49-.75-1.18-1.13-2.07-1.13s-1.58.38-2.07,1.13c-.49.75-.73,1.84-.73,3.26s.24,2.5.73,3.24,1.18,1.11,2.07,1.11,1.58-.37,2.07-1.11c.49-.74.73-1.82.73-3.24s-.24-2.5-.73-3.26Z"/>
      <path class="cls-1" d="M108.93,136.8c.76,0,1.45.13,2.08.39.63.26,1.16.66,1.61,1.19.96,1.13,1.44,2.74,1.44,4.85s-.48,3.72-1.44,4.84c-.89,1.05-2.11,1.58-3.67,1.58s-2.81-.53-3.71-1.58c-.95-1.1-1.42-2.72-1.42-4.84s.48-3.74,1.42-4.85c.9-1.05,2.13-1.58,3.69-1.58ZM111.01,139.96c-.49-.75-1.18-1.13-2.07-1.13s-1.58.38-2.07,1.13c-.49.75-.73,1.84-.73,3.26s.24,2.5.73,3.24,1.18,1.11,2.07,1.11,1.58-.37,2.07-1.11c.49-.74.73-1.82.73-3.24s-.24-2.5-.73-3.26Z"/>
      <path class="cls-1" d="M120.56,137.98c.95-.14,1.79-.48,2.51-1.01h1.69v12.41h-2.24v-9.73c-.65.32-1.3.48-1.96.48v-2.15Z"/>
      <path class="cls-1" d="M132.15,137.98c.95-.14,1.79-.48,2.51-1.01h1.69v12.41h-2.24v-9.73c-.65.32-1.3.48-1.96.48v-2.15Z"/>
      <path class="cls-1" d="M148.94,136.8c.76,0,1.45.13,2.08.39.63.26,1.16.66,1.61,1.19.96,1.13,1.44,2.74,1.44,4.85s-.48,3.72-1.44,4.84c-.89,1.05-2.11,1.58-3.67,1.58s-2.81-.53-3.71-1.58c-.95-1.1-1.42-2.72-1.42-4.84s.48-3.74,1.42-4.85c.9-1.05,2.13-1.58,3.69-1.58ZM151.02,139.96c-.49-.75-1.18-1.13-2.07-1.13s-1.58.38-2.07,1.13c-.49.75-.73,1.84-.73,3.26s.24,2.5.73,3.24,1.18,1.11,2.07,1.11,1.58-.37,2.07-1.11c.49-.74.73-1.82.73-3.24s-.24-2.5-.73-3.26Z"/>
      <path class="cls-1" d="M269.97,136.8c.76,0,1.45.13,2.08.39.63.26,1.16.66,1.61,1.19.96,1.13,1.44,2.74,1.44,4.85s-.48,3.72-1.44,4.84c-.89,1.05-2.11,1.58-3.67,1.58s-2.81-.53-3.71-1.58c-.95-1.1-1.43-2.72-1.43-4.84s.48-3.74,1.43-4.85c.9-1.05,2.13-1.58,3.69-1.58ZM272.06,139.96c-.49-.75-1.18-1.13-2.07-1.13s-1.58.38-2.07,1.13c-.49.75-.73,1.84-.73,3.26s.24,2.5.73,3.24,1.18,1.11,2.07,1.11,1.58-.37,2.07-1.11c.49-.74.73-1.82.73-3.24s-.24-2.5-.73-3.26Z"/>
      <path class="cls-1" d="M286.81,136.8c.76,0,1.45.13,2.08.39.63.26,1.16.66,1.61,1.19.96,1.13,1.44,2.74,1.44,4.85s-.48,3.72-1.44,4.84c-.89,1.05-2.11,1.58-3.67,1.58s-2.81-.53-3.71-1.58c-.95-1.1-1.43-2.72-1.43-4.84s.48-3.74,1.43-4.85c.9-1.05,2.13-1.58,3.69-1.58ZM288.89,139.96c-.49-.75-1.18-1.13-2.07-1.13s-1.58.38-2.07,1.13c-.49.75-.73,1.84-.73,3.26s.24,2.5.73,3.24,1.18,1.11,2.07,1.11,1.58-.37,2.07-1.11c.49-.74.73-1.82.73-3.24s-.24-2.5-.73-3.26Z"/>
      <path class="cls-1" d="M303.64,136.8c.76,0,1.45.13,2.08.39.63.26,1.16.66,1.61,1.19.96,1.13,1.44,2.74,1.44,4.85s-.48,3.72-1.44,4.84c-.89,1.05-2.11,1.58-3.67,1.58s-2.81-.53-3.71-1.58c-.95-1.1-1.43-2.72-1.43-4.84s.48-3.74,1.43-4.85c.9-1.05,2.13-1.58,3.69-1.58ZM305.72,139.96c-.49-.75-1.18-1.13-2.07-1.13s-1.58.38-2.07,1.13c-.49.75-.73,1.84-.73,3.26s.24,2.5.73,3.24,1.18,1.11,2.07,1.11,1.58-.37,2.07-1.11c.49-.74.73-1.82.73-3.24s-.24-2.5-.73-3.26Z"/>
      <path class="cls-1" d="M315.27,137.98c.95-.14,1.79-.48,2.51-1.01h1.69v12.41h-2.24v-9.73c-.65.32-1.3.48-1.96.48v-2.15Z"/>
      <path class="cls-1" d="M332.07,136.8c.76,0,1.45.13,2.08.39.63.26,1.16.66,1.61,1.19.96,1.13,1.44,2.74,1.44,4.85s-.48,3.72-1.44,4.84c-.89,1.05-2.11,1.58-3.67,1.58s-2.81-.53-3.71-1.58c-.95-1.1-1.43-2.72-1.43-4.84s.48-3.74,1.43-4.85c.9-1.05,2.13-1.58,3.69-1.58ZM334.15,139.96c-.49-.75-1.18-1.13-2.07-1.13s-1.58.38-2.07,1.13c-.49.75-.73,1.84-.73,3.26s.24,2.5.73,3.24,1.18,1.11,2.07,1.11,1.58-.37,2.07-1.11c.49-.74.73-1.82.73-3.24s-.24-2.5-.73-3.26Z"/>
      <path class="cls-1" d="M343.69,137.98c.95-.14,1.79-.48,2.51-1.01h1.69v12.41h-2.24v-9.73c-.65.32-1.3.48-1.96.48v-2.15Z"/>
      <path class="cls-1" d="M355.28,137.98c.95-.14,1.79-.48,2.51-1.01h1.69v12.41h-2.24v-9.73c-.65.32-1.3.48-1.96.48v-2.15Z"/>
      <path class="cls-1" d="M366.87,137.98c.95-.14,1.79-.48,2.51-1.01h1.69v12.41h-2.24v-9.73c-.65.32-1.3.48-1.96.48v-2.15Z"/>
      <path class="cls-1" d="M54.76,159.6c.76,0,1.45.13,2.08.39.63.26,1.16.66,1.61,1.19.96,1.13,1.44,2.74,1.44,4.85s-.48,3.72-1.44,4.84c-.89,1.05-2.11,1.58-3.67,1.58s-2.81-.53-3.71-1.58c-.95-1.1-1.42-2.72-1.42-4.84s.48-3.74,1.42-4.85c.9-1.05,2.13-1.58,3.69-1.58ZM56.84,162.76c-.49-.75-1.18-1.13-2.07-1.13s-1.58.38-2.07,1.13c-.49.75-.73,1.84-.73,3.26s.24,2.5.73,3.24,1.18,1.11,2.07,1.11,1.58-.37,2.07-1.11c.49-.74.73-1.82.73-3.24s-.24-2.5-.73-3.26Z"/>
      <path class="cls-1" d="M71.6,159.6c.76,0,1.45.13,2.08.39.63.26,1.16.66,1.61,1.19.96,1.13,1.44,2.74,1.44,4.85s-.48,3.72-1.44,4.84c-.89,1.05-2.11,1.58-3.67,1.58s-2.81-.53-3.71-1.58c-.95-1.1-1.42-2.72-1.42-4.84s.48-3.74,1.42-4.85c.9-1.05,2.13-1.58,3.69-1.58ZM73.68,162.76c-.49-.75-1.18-1.13-2.07-1.13s-1.58.38-2.07,1.13c-.49.75-.73,1.84-.73,3.26s.24,2.5.73,3.24,1.18,1.11,2.07,1.11,1.58-.37,2.07-1.11c.49-.74.73-1.82.73-3.24s-.24-2.5-.73-3.26Z"/>
      <path class="cls-1" d="M83.22,160.78c.95-.14,1.79-.48,2.51-1.01h1.69v12.41h-2.24v-9.73c-.65.32-1.3.48-1.96.48v-2.15Z"/>
      <path class="cls-1" d="M100.02,159.6c.76,0,1.45.13,2.08.39.63.26,1.16.66,1.61,1.19.96,1.13,1.44,2.74,1.44,4.85s-.48,3.72-1.44,4.84c-.89,1.05-2.11,1.58-3.67,1.58s-2.81-.53-3.71-1.58c-.95-1.1-1.42-2.72-1.42-4.84s.48-3.74,1.42-4.85c.9-1.05,2.13-1.58,3.69-1.58ZM102.1,162.76c-.49-.75-1.18-1.13-2.07-1.13s-1.58.38-2.07,1.13c-.49.75-.73,1.84-.73,3.26s.24,2.5.73,3.24,1.18,1.11,2.07,1.11,1.58-.37,2.07-1.11c.49-.74.73-1.82.73-3.24s-.24-2.5-.73-3.26Z"/>
      <path class="cls-1" d="M116.85,159.6c.76,0,1.45.13,2.08.39.63.26,1.16.66,1.61,1.19.96,1.13,1.44,2.74,1.44,4.85s-.48,3.72-1.44,4.84c-.89,1.05-2.11,1.58-3.67,1.58s-2.81-.53-3.71-1.58c-.95-1.1-1.42-2.72-1.42-4.84s.48-3.74,1.42-4.85c.9-1.05,2.13-1.58,3.69-1.58ZM118.93,162.76c-.49-.75-1.18-1.13-2.07-1.13s-1.58.38-2.07,1.13c-.49.75-.73,1.84-.73,3.26s.24,2.5.73,3.24,1.18,1.11,2.07,1.11,1.58-.37,2.07-1.11c.49-.74.73-1.82.73-3.24s-.24-2.5-.73-3.26Z"/>
      <path class="cls-1" d="M128.48,160.78c.95-.14,1.79-.48,2.51-1.01h1.69v12.41h-2.24v-9.73c-.65.32-1.3.48-1.96.48v-2.15Z"/>
      <path class="cls-1" d="M140.07,160.78c.95-.14,1.79-.48,2.51-1.01h1.69v12.41h-2.24v-9.73c-.65.32-1.3.48-1.96.48v-2.15Z"/>
      <path class="cls-1" d="M276.27,159.6c.76,0,1.45.13,2.08.39.63.26,1.16.66,1.61,1.19.96,1.13,1.44,2.74,1.44,4.85s-.48,3.72-1.44,4.84c-.89,1.05-2.11,1.58-3.67,1.58s-2.81-.53-3.71-1.58c-.95-1.1-1.43-2.72-1.43-4.84s.48-3.74,1.43-4.85c.9-1.05,2.13-1.58,3.69-1.58ZM278.35,162.76c-.49-.75-1.18-1.13-2.07-1.13s-1.58.38-2.07,1.13c-.49.75-.73,1.84-.73,3.26s.24,2.5.73,3.24,1.18,1.11,2.07,1.11,1.58-.37,2.07-1.11c.49-.74.73-1.82.73-3.24s-.24-2.5-.73-3.26Z"/>
      <path class="cls-1" d="M287.9,160.78c.95-.14,1.79-.48,2.51-1.01h1.69v12.41h-2.24v-9.73c-.65.32-1.3.48-1.96.48v-2.15Z"/>
      <path class="cls-1" d="M304.69,159.6c.76,0,1.45.13,2.08.39.63.26,1.16.66,1.61,1.19.96,1.13,1.44,2.74,1.44,4.85s-.48,3.72-1.44,4.84c-.89,1.05-2.11,1.58-3.67,1.58s-2.81-.53-3.71-1.58c-.95-1.1-1.43-2.72-1.43-4.84s.48-3.74,1.43-4.85c.9-1.05,2.13-1.58,3.69-1.58ZM306.77,162.76c-.49-.75-1.18-1.13-2.07-1.13s-1.58.38-2.07,1.13c-.49.75-.73,1.84-.73,3.26s.24,2.5.73,3.24,1.18,1.11,2.07,1.11,1.58-.37,2.07-1.11c.49-.74.73-1.82.73-3.24s-.24-2.5-.73-3.26Z"/>
      <path class="cls-1" d="M321.52,159.6c.76,0,1.45.13,2.08.39.63.26,1.16.66,1.61,1.19.96,1.13,1.44,2.74,1.44,4.85s-.48,3.72-1.44,4.84c-.89,1.05-2.11,1.58-3.67,1.58s-2.81-.53-3.71-1.58c-.95-1.1-1.43-2.72-1.43-4.84s.48-3.74,1.43-4.85c.9-1.05,2.13-1.58,3.69-1.58ZM323.61,162.76c-.49-.75-1.18-1.13-2.07-1.13s-1.58.38-2.07,1.13c-.49.75-.73,1.84-.73,3.26s.24,2.5.73,3.24,1.18,1.11,2.07,1.11,1.58-.37,2.07-1.11c.49-.74.73-1.82.73-3.24s-.24-2.5-.73-3.26Z"/>
      <path class="cls-1" d="M338.36,159.6c.76,0,1.45.13,2.08.39.63.26,1.16.66,1.61,1.19.96,1.13,1.44,2.74,1.44,4.85s-.48,3.72-1.44,4.84c-.89,1.05-2.11,1.58-3.67,1.58s-2.81-.53-3.71-1.58c-.95-1.1-1.43-2.72-1.43-4.84s.48-3.74,1.43-4.85c.9-1.05,2.13-1.58,3.69-1.58ZM340.44,162.76c-.49-.75-1.18-1.13-2.07-1.13s-1.58.38-2.07,1.13c-.49.75-.73,1.84-.73,3.26s.24,2.5.73,3.24,1.18,1.11,2.07,1.11,1.58-.37,2.07-1.11c.49-.74.73-1.82.73-3.24s-.24-2.5-.73-3.26Z"/>
      <path class="cls-1" d="M355.19,159.6c.76,0,1.45.13,2.08.39.63.26,1.16.66,1.61,1.19.96,1.13,1.44,2.74,1.44,4.85s-.48,3.72-1.44,4.84c-.89,1.05-2.11,1.58-3.67,1.58s-2.81-.53-3.71-1.58c-.95-1.1-1.43-2.72-1.43-4.84s.48-3.74,1.43-4.85c.9-1.05,2.13-1.58,3.69-1.58ZM357.27,162.76c-.49-.75-1.18-1.13-2.07-1.13s-1.58.38-2.07,1.13c-.49.75-.73,1.84-.73,3.26s.24,2.5.73,3.24,1.18,1.11,2.07,1.11,1.58-.37,2.07-1.11c.49-.74.73-1.82.73-3.24s-.24-2.5-.73-3.26Z"/>
      <path class="cls-1" d="M366.82,160.78c.95-.14,1.79-.48,2.51-1.01h1.69v12.41h-2.24v-9.73c-.65.32-1.3.48-1.96.48v-2.15Z"/>
      <path class="cls-1" d="M46.74,183.58c.95-.14,1.79-.47,2.51-1.01h1.69v12.41h-2.24v-9.73c-.65.32-1.3.47-1.96.47v-2.15Z"/>
      <path class="cls-1" d="M63.53,182.4c.76,0,1.45.13,2.08.39s1.16.66,1.61,1.19c.96,1.13,1.44,2.74,1.44,4.84s-.48,3.72-1.44,4.85c-.89,1.05-2.11,1.58-3.67,1.58s-2.81-.53-3.71-1.58c-.95-1.1-1.42-2.72-1.42-4.85s.48-3.74,1.42-4.84c.9-1.05,2.13-1.58,3.69-1.58ZM65.61,185.56c-.49-.75-1.18-1.13-2.07-1.13s-1.58.38-2.07,1.13c-.49.75-.73,1.84-.73,3.26s.24,2.5.73,3.24c.49.74,1.18,1.11,2.07,1.11s1.58-.37,2.07-1.11c.49-.74.73-1.82.73-3.24s-.24-2.5-.73-3.26Z"/>
      <path class="cls-1" d="M80.37,182.4c.76,0,1.45.13,2.08.39s1.16.66,1.61,1.19c.96,1.13,1.44,2.74,1.44,4.84s-.48,3.72-1.44,4.85c-.89,1.05-2.11,1.58-3.67,1.58s-2.81-.53-3.71-1.58c-.95-1.1-1.42-2.72-1.42-4.85s.48-3.74,1.42-4.84c.9-1.05,2.13-1.58,3.69-1.58ZM82.45,185.56c-.49-.75-1.18-1.13-2.07-1.13s-1.58.38-2.07,1.13c-.49.75-.73,1.84-.73,3.26s.24,2.5.73,3.24c.49.74,1.18,1.11,2.07,1.11s1.58-.37,2.07-1.11c.49-.74.73-1.82.73-3.24s-.24-2.5-.73-3.26Z"/>
      <path class="cls-1" d="M97.2,182.4c.76,0,1.45.13,2.08.39s1.16.66,1.61,1.19c.96,1.13,1.44,2.74,1.44,4.84s-.48,3.72-1.44,4.85c-.89,1.05-2.11,1.58-3.67,1.58s-2.81-.53-3.71-1.58c-.95-1.1-1.42-2.72-1.42-4.85s.48-3.74,1.42-4.84c.9-1.05,2.13-1.58,3.69-1.58ZM99.28,185.56c-.49-.75-1.18-1.13-2.07-1.13s-1.58.38-2.07,1.13c-.49.75-.73,1.84-.73,3.26s.24,2.5.73,3.24c.49.74,1.18,1.11,2.07,1.11s1.58-.37,2.07-1.11c.49-.74.73-1.82.73-3.24s-.24-2.5-.73-3.26Z"/>
      <path class="cls-1" d="M114.03,182.4c.76,0,1.45.13,2.08.39s1.16.66,1.61,1.19c.96,1.13,1.44,2.74,1.44,4.84s-.48,3.72-1.44,4.85c-.89,1.05-2.11,1.58-3.67,1.58s-2.81-.53-3.71-1.58c-.95-1.1-1.42-2.72-1.42-4.85s.48-3.74,1.42-4.84c.9-1.05,2.13-1.58,3.69-1.58ZM116.11,185.56c-.49-.75-1.18-1.13-2.07-1.13s-1.58.38-2.07,1.13c-.49.75-.73,1.84-.73,3.26s.24,2.5.73,3.24c.49.74,1.18,1.11,2.07,1.11s1.58-.37,2.07-1.11c.49-.74.73-1.82.73-3.24s-.24-2.5-.73-3.26Z"/>
      <path class="cls-1" d="M125.66,183.58c.95-.14,1.79-.47,2.51-1.01h1.69v12.41h-2.24v-9.73c-.65.32-1.3.47-1.96.47v-2.15Z"/>
      <path class="cls-1" d="M142.46,182.4c.76,0,1.45.13,2.08.39s1.16.66,1.61,1.19c.96,1.13,1.44,2.74,1.44,4.84s-.48,3.72-1.44,4.85c-.89,1.05-2.11,1.58-3.67,1.58s-2.81-.53-3.71-1.58c-.95-1.1-1.42-2.72-1.42-4.85s.48-3.74,1.42-4.84c.9-1.05,2.13-1.58,3.69-1.58ZM144.54,185.56c-.49-.75-1.18-1.13-2.07-1.13s-1.58.38-2.07,1.13c-.49.75-.73,1.84-.73,3.26s.24,2.5.73,3.24c.49.74,1.18,1.11,2.07,1.11s1.58-.37,2.07-1.11c.49-.74.73-1.82.73-3.24s-.24-2.5-.73-3.26Z"/>
      <path class="cls-1" d="M276.48,183.58c.95-.14,1.79-.47,2.51-1.01h1.69v12.41h-2.24v-9.73c-.65.32-1.3.47-1.96.47v-2.15Z"/>
      <path class="cls-1" d="M288.06,183.58c.95-.14,1.79-.47,2.51-1.01h1.69v12.41h-2.24v-9.73c-.65.32-1.3.47-1.96.47v-2.15Z"/>
      <path class="cls-1" d="M304.86,182.4c.76,0,1.45.13,2.08.39.63.26,1.16.66,1.61,1.19.96,1.13,1.44,2.74,1.44,4.84s-.48,3.72-1.44,4.85c-.89,1.05-2.11,1.58-3.67,1.58s-2.81-.53-3.71-1.58c-.95-1.1-1.43-2.72-1.43-4.85s.48-3.74,1.43-4.84c.9-1.05,2.13-1.58,3.69-1.58ZM306.94,185.56c-.49-.75-1.18-1.13-2.07-1.13s-1.58.38-2.07,1.13c-.49.75-.73,1.84-.73,3.26s.24,2.5.73,3.24c.49.74,1.18,1.11,2.07,1.11s1.58-.37,2.07-1.11c.49-.74.73-1.82.73-3.24s-.24-2.5-.73-3.26Z"/>
      <path class="cls-1" d="M321.69,182.4c.76,0,1.45.13,2.08.39.63.26,1.16.66,1.61,1.19.96,1.13,1.44,2.74,1.44,4.84s-.48,3.72-1.44,4.85c-.89,1.05-2.11,1.58-3.67,1.58s-2.81-.53-3.71-1.58c-.95-1.1-1.43-2.72-1.43-4.85s.48-3.74,1.43-4.84c.9-1.05,2.13-1.58,3.69-1.58ZM323.78,185.56c-.49-.75-1.18-1.13-2.07-1.13s-1.58.38-2.07,1.13c-.49.75-.73,1.84-.73,3.26s.24,2.5.73,3.24c.49.74,1.18,1.11,2.07,1.11s1.58-.37,2.07-1.11c.49-.74.73-1.82.73-3.24s-.24-2.5-.73-3.26Z"/>
      <path class="cls-1" d="M338.53,182.4c.76,0,1.45.13,2.08.39.63.26,1.16.66,1.61,1.19.96,1.13,1.44,2.74,1.44,4.84s-.48,3.72-1.44,4.85c-.89,1.05-2.11,1.58-3.67,1.58s-2.81-.53-3.71-1.58c-.95-1.1-1.43-2.72-1.43-4.85s.48-3.74,1.43-4.84c.9-1.05,2.13-1.58,3.69-1.58ZM340.61,185.56c-.49-.75-1.18-1.13-2.07-1.13s-1.58.38-2.07,1.13c-.49.75-.73,1.84-.73,3.26s.24,2.5.73,3.24c.49.74,1.18,1.11,2.07,1.11s1.58-.37,2.07-1.11c.49-.74.73-1.82.73-3.24s-.24-2.5-.73-3.26Z"/>
      <path class="cls-1" d="M350.16,183.58c.95-.14,1.79-.47,2.51-1.01h1.69v12.41h-2.24v-9.73c-.65.32-1.3.47-1.96.47v-2.15Z"/>
      <path class="cls-1" d="M361.75,183.58c.95-.14,1.79-.47,2.51-1.01h1.69v12.41h-2.24v-9.73c-.65.32-1.3.47-1.96.47v-2.15Z"/>
      <path class="cls-1" d="M50.84,205.2c.76,0,1.45.13,2.08.39s1.16.66,1.61,1.19c.96,1.13,1.44,2.74,1.44,4.84s-.48,3.72-1.44,4.85c-.89,1.05-2.11,1.58-3.67,1.58s-2.81-.53-3.71-1.58c-.95-1.1-1.42-2.72-1.42-4.85s.48-3.74,1.42-4.84c.9-1.05,2.13-1.58,3.69-1.58ZM52.92,208.36c-.49-.75-1.18-1.13-2.07-1.13s-1.58.38-2.07,1.13c-.49.75-.73,1.84-.73,3.26s.24,2.5.73,3.24c.49.74,1.18,1.11,2.07,1.11s1.58-.37,2.07-1.11c.49-.74.73-1.82.73-3.24s-.24-2.5-.73-3.26Z"/>
      <path class="cls-1" d="M62.47,206.38c.95-.14,1.79-.47,2.51-1.01h1.69v12.41h-2.24v-9.73c-.65.32-1.3.47-1.96.47v-2.15Z"/>
      <path class="cls-1" d="M74.06,206.38c.95-.14,1.79-.47,2.51-1.01h1.69v12.41h-2.24v-9.73c-.65.32-1.3.47-1.96.47v-2.15Z"/>
      <path class="cls-1" d="M90.86,205.2c.76,0,1.45.13,2.08.39s1.16.66,1.61,1.19c.96,1.13,1.44,2.74,1.44,4.84s-.48,3.72-1.44,4.85c-.89,1.05-2.11,1.58-3.67,1.58s-2.81-.53-3.71-1.58c-.95-1.1-1.42-2.72-1.42-4.85s.48-3.74,1.42-4.84c.9-1.05,2.13-1.58,3.69-1.58ZM92.94,208.36c-.49-.75-1.18-1.13-2.07-1.13s-1.58.38-2.07,1.13c-.49.75-.73,1.84-.73,3.26s.24,2.5.73,3.24c.49.74,1.18,1.11,2.07,1.11s1.58-.37,2.07-1.11c.49-.74.73-1.82.73-3.24s-.24-2.5-.73-3.26Z"/>
      <path class="cls-1" d="M102.48,206.38c.95-.14,1.79-.47,2.51-1.01h1.69v12.41h-2.24v-9.73c-.65.32-1.3.47-1.96.47v-2.15Z"/>
      <path class="cls-1" d="M119.28,205.2c.76,0,1.45.13,2.08.39s1.16.66,1.61,1.19c.96,1.13,1.44,2.74,1.44,4.84s-.48,3.72-1.44,4.85c-.89,1.05-2.11,1.58-3.67,1.58s-2.81-.53-3.71-1.58c-.95-1.1-1.42-2.72-1.42-4.85s.48-3.74,1.42-4.84c.9-1.05,2.13-1.58,3.69-1.58ZM121.36,208.36c-.49-.75-1.18-1.13-2.07-1.13s-1.58.38-2.07,1.13c-.49.75-.73,1.84-.73,3.26s.24,2.5.73,3.24c.49.74,1.18,1.11,2.07,1.11s1.58-.37,2.07-1.11c.49-.74.73-1.82.73-3.24s-.24-2.5-.73-3.26Z"/>
      <path class="cls-1" d="M130.91,206.38c.95-.14,1.79-.47,2.51-1.01h1.69v12.41h-2.24v-9.73c-.65.32-1.3.47-1.96.47v-2.15Z"/>
      <path class="cls-1" d="M142.5,206.38c.95-.14,1.79-.47,2.51-1.01h1.69v12.41h-2.24v-9.73c-.65.32-1.3.47-1.96.47v-2.15Z"/>
      <path class="cls-1" d="M282.23,205.2c.76,0,1.45.13,2.08.39.63.26,1.16.66,1.61,1.19.96,1.13,1.44,2.74,1.44,4.84s-.48,3.72-1.44,4.85c-.89,1.05-2.11,1.58-3.67,1.58s-2.81-.53-3.71-1.58c-.95-1.1-1.43-2.72-1.43-4.85s.48-3.74,1.43-4.84c.9-1.05,2.13-1.58,3.69-1.58ZM284.31,208.36c-.49-.75-1.18-1.13-2.07-1.13s-1.58.38-2.07,1.13c-.49.75-.73,1.84-.73,3.26s.24,2.5.73,3.24c.49.74,1.18,1.11,2.07,1.11s1.58-.37,2.07-1.11c.49-.74.73-1.82.73-3.24s-.24-2.5-.73-3.26Z"/>
      <path class="cls-1" d="M293.86,206.38c.95-.14,1.79-.47,2.51-1.01h1.69v12.41h-2.24v-9.73c-.65.32-1.3.47-1.96.47v-2.15Z"/>
      <path class="cls-1" d="M305.45,206.38c.95-.14,1.79-.47,2.51-1.01h1.69v12.41h-2.24v-9.73c-.65.32-1.3.47-1.96.47v-2.15Z"/>
      <path class="cls-1" d="M322.24,205.2c.76,0,1.45.13,2.08.39.63.26,1.16.66,1.61,1.19.96,1.13,1.44,2.74,1.44,4.84s-.48,3.72-1.44,4.85c-.89,1.05-2.11,1.58-3.67,1.58s-2.81-.53-3.71-1.58c-.95-1.1-1.43-2.72-1.43-4.85s.48-3.74,1.43-4.84c.9-1.05,2.13-1.58,3.69-1.58ZM324.32,208.36c-.49-.75-1.18-1.13-2.07-1.13s-1.58.38-2.07,1.13c-.49.75-.73,1.84-.73,3.26s.24,2.5.73,3.24c.49.74,1.18,1.11,2.07,1.11s1.58-.37,2.07-1.11c.49-.74.73-1.82.73-3.24s-.24-2.5-.73-3.26Z"/>
      <path class="cls-1" d="M339.08,205.2c.76,0,1.45.13,2.08.39.63.26,1.16.66,1.61,1.19.96,1.13,1.44,2.74,1.44,4.84s-.48,3.72-1.44,4.85c-.89,1.05-2.11,1.58-3.67,1.58s-2.81-.53-3.71-1.58c-.95-1.1-1.43-2.72-1.43-4.85s.48-3.74,1.43-4.84c.9-1.05,2.13-1.58,3.69-1.58ZM341.16,208.36c-.49-.75-1.18-1.13-2.07-1.13s-1.58.38-2.07,1.13c-.49.75-.73,1.84-.73,3.26s.24,2.5.73,3.24c.49.74,1.18,1.11,2.07,1.11s1.58-.37,2.07-1.11c.49-.74.73-1.82.73-3.24s-.24-2.5-.73-3.26Z"/>
      <path class="cls-1" d="M350.71,206.38c.95-.14,1.79-.47,2.51-1.01h1.69v12.41h-2.24v-9.73c-.65.32-1.3.47-1.96.47v-2.15Z"/>
      <path class="cls-1" d="M362.3,206.38c.95-.14,1.79-.47,2.51-1.01h1.69v12.41h-2.24v-9.73c-.65.32-1.3.47-1.96.47v-2.15Z"/>
      <path class="cls-1" d="M49.99,228c.76,0,1.45.13,2.08.39s1.16.66,1.61,1.19c.96,1.13,1.44,2.74,1.44,4.84s-.48,3.72-1.44,4.85c-.89,1.05-2.11,1.58-3.67,1.58s-2.81-.53-3.71-1.58c-.95-1.1-1.42-2.72-1.42-4.85s.48-3.74,1.42-4.84c.9-1.05,2.13-1.58,3.69-1.58ZM52.07,231.16c-.49-.75-1.18-1.13-2.07-1.13s-1.58.38-2.07,1.13c-.49.75-.73,1.84-.73,3.26s.24,2.5.73,3.24c.49.74,1.18,1.11,2.07,1.11s1.58-.37,2.07-1.11c.49-.74.73-1.82.73-3.24s-.24-2.5-.73-3.26Z"/>
      <path class="cls-1" d="M66.82,228c.76,0,1.45.13,2.08.39s1.16.66,1.61,1.19c.96,1.13,1.44,2.74,1.44,4.84s-.48,3.72-1.44,4.85c-.89,1.05-2.11,1.58-3.67,1.58s-2.81-.53-3.71-1.58c-.95-1.1-1.42-2.72-1.42-4.85s.48-3.74,1.42-4.84c.9-1.05,2.13-1.58,3.69-1.58ZM68.9,231.16c-.49-.75-1.18-1.13-2.07-1.13s-1.58.38-2.07,1.13c-.49.75-.73,1.84-.73,3.26s.24,2.5.73,3.24c.49.74,1.18,1.11,2.07,1.11s1.58-.37,2.07-1.11c.49-.74.73-1.82.73-3.24s-.24-2.5-.73-3.26Z"/>
      <path class="cls-1" d="M78.45,229.18c.95-.14,1.79-.47,2.51-1.01h1.69v12.41h-2.24v-9.73c-.65.32-1.3.47-1.96.47v-2.15Z"/>
      <path class="cls-1" d="M90.04,229.18c.95-.14,1.79-.47,2.51-1.01h1.69v12.41h-2.24v-9.73c-.65.32-1.3.47-1.96.47v-2.15Z"/>
      <path class="cls-1" d="M106.83,228c.76,0,1.45.13,2.08.39s1.16.66,1.61,1.19c.96,1.13,1.44,2.74,1.44,4.84s-.48,3.72-1.44,4.85c-.89,1.05-2.11,1.58-3.67,1.58s-2.81-.53-3.71-1.58c-.95-1.1-1.42-2.72-1.42-4.85s.48-3.74,1.42-4.84c.9-1.05,2.13-1.58,3.69-1.58ZM108.91,231.16c-.49-.75-1.18-1.13-2.07-1.13s-1.58.38-2.07,1.13c-.49.75-.73,1.84-.73,3.26s.24,2.5.73,3.24c.49.74,1.18,1.11,2.07,1.11s1.58-.37,2.07-1.11c.49-.74.73-1.82.73-3.24s-.24-2.5-.73-3.26Z"/>
      <path class="cls-1" d="M123.67,228c.76,0,1.45.13,2.08.39s1.16.66,1.61,1.19c.96,1.13,1.44,2.74,1.44,4.84s-.48,3.72-1.44,4.85c-.89,1.05-2.11,1.58-3.67,1.58s-2.81-.53-3.71-1.58c-.95-1.1-1.42-2.72-1.42-4.85s.48-3.74,1.42-4.84c.9-1.05,2.13-1.58,3.69-1.58ZM125.75,231.16c-.49-.75-1.18-1.13-2.07-1.13s-1.58.38-2.07,1.13c-.49.75-.73,1.84-.73,3.26s.24,2.5.73,3.24c.49.74,1.18,1.11,2.07,1.11s1.58-.37,2.07-1.11c.49-.74.73-1.82.73-3.24s-.24-2.5-.73-3.26Z"/>
      <path class="cls-1" d="M140.5,228c.76,0,1.45.13,2.08.39s1.16.66,1.61,1.19c.96,1.13,1.44,2.74,1.44,4.84s-.48,3.72-1.44,4.85c-.89,1.05-2.11,1.58-3.67,1.58s-2.81-.53-3.71-1.58c-.95-1.1-1.42-2.72-1.42-4.85s.48-3.74,1.42-4.84c.9-1.05,2.13-1.58,3.69-1.58ZM142.58,231.16c-.49-.75-1.18-1.13-2.07-1.13s-1.58.38-2.07,1.13c-.49.75-.73,1.84-.73,3.26s.24,2.5.73,3.24c.49.74,1.18,1.11,2.07,1.11s1.58-.37,2.07-1.11c.49-.74.73-1.82.73-3.24s-.24-2.5-.73-3.26Z"/>
      <path class="cls-1" d="M275.22,228c.76,0,1.45.13,2.08.39.63.26,1.16.66,1.61,1.19.96,1.13,1.44,2.74,1.44,4.84s-.48,3.72-1.44,4.85c-.89,1.05-2.11,1.58-3.67,1.58s-2.81-.53-3.71-1.58c-.95-1.1-1.43-2.72-1.43-4.85s.48-3.74,1.43-4.84c.9-1.05,2.13-1.58,3.69-1.58ZM277.3,231.16c-.49-.75-1.18-1.13-2.07-1.13s-1.58.38-2.07,1.13c-.49.75-.73,1.84-.73,3.26s.24,2.5.73,3.24c.49.74,1.18,1.11,2.07,1.11s1.58-.37,2.07-1.11c.49-.74.73-1.82.73-3.24s-.24-2.5-.73-3.26Z"/>
      <path class="cls-1" d="M286.85,229.18c.95-.14,1.79-.47,2.51-1.01h1.69v12.41h-2.24v-9.73c-.65.32-1.3.47-1.96.47v-2.15Z"/>
      <path class="cls-1" d="M303.65,228c.76,0,1.45.13,2.08.39.63.26,1.16.66,1.61,1.19.96,1.13,1.44,2.74,1.44,4.84s-.48,3.72-1.44,4.85c-.89,1.05-2.11,1.58-3.67,1.58s-2.81-.53-3.71-1.58c-.95-1.1-1.43-2.72-1.43-4.85s.48-3.74,1.43-4.84c.9-1.05,2.13-1.58,3.69-1.58ZM305.73,231.16c-.49-.75-1.18-1.13-2.07-1.13s-1.58.38-2.07,1.13c-.49.75-.73,1.84-.73,3.26s.24,2.5.73,3.24c.49.74,1.18,1.11,2.07,1.11s1.58-.37,2.07-1.11c.49-.74.73-1.82.73-3.24s-.24-2.5-.73-3.26Z"/>
      <path class="cls-1" d="M315.27,229.18c.95-.14,1.79-.47,2.51-1.01h1.69v12.41h-2.24v-9.73c-.65.32-1.3.47-1.96.47v-2.15Z"/>
      <path class="cls-1" d="M326.86,229.18c.95-.14,1.79-.47,2.51-1.01h1.69v12.41h-2.24v-9.73c-.65.32-1.3.47-1.96.47v-2.15Z"/>
      <path class="cls-1" d="M338.45,229.18c.95-.14,1.79-.47,2.51-1.01h1.69v12.41h-2.24v-9.73c-.65.32-1.3.47-1.96.47v-2.15Z"/>
      <path class="cls-1" d="M355.25,228c.76,0,1.45.13,2.08.39.63.26,1.16.66,1.61,1.19.96,1.13,1.44,2.74,1.44,4.84s-.48,3.72-1.44,4.85c-.89,1.05-2.11,1.58-3.67,1.58s-2.81-.53-3.71-1.58c-.95-1.1-1.43-2.72-1.43-4.85s.48-3.74,1.43-4.84c.9-1.05,2.13-1.58,3.69-1.58ZM357.33,231.16c-.49-.75-1.18-1.13-2.07-1.13s-1.58.38-2.07,1.13c-.49.75-.73,1.84-.73,3.26s.24,2.5.73,3.24c.49.74,1.18,1.11,2.07,1.11s1.58-.37,2.07-1.11c.49-.74.73-1.82.73-3.24s-.24-2.5-.73-3.26Z"/>
      <path class="cls-1" d="M372.08,228c.76,0,1.45.13,2.08.39.63.26,1.16.66,1.61,1.19.96,1.13,1.44,2.74,1.44,4.84s-.48,3.72-1.44,4.85c-.89,1.05-2.11,1.58-3.67,1.58s-2.81-.53-3.71-1.58c-.95-1.1-1.43-2.72-1.43-4.85s.48-3.74,1.43-4.84c.9-1.05,2.13-1.58,3.69-1.58ZM374.16,231.16c-.49-.75-1.18-1.13-2.07-1.13s-1.58.38-2.07,1.13c-.49.75-.73,1.84-.73,3.26s.24,2.5.73,3.24c.49.74,1.18,1.11,2.07,1.11s1.58-.37,2.07-1.11c.49-.74.73-1.82.73-3.24s-.24-2.5-.73-3.26Z"/>
      <path class="cls-1" d="M36.69,251.98c.95-.14,1.79-.47,2.51-1.01h1.69v12.41h-2.24v-9.73c-.65.32-1.3.47-1.96.47v-2.15Z"/>
      <path class="cls-1" d="M53.48,250.8c.76,0,1.45.13,2.08.39s1.16.66,1.61,1.19c.96,1.13,1.44,2.74,1.44,4.84s-.48,3.72-1.44,4.85c-.89,1.05-2.11,1.58-3.67,1.58s-2.81-.53-3.71-1.58c-.95-1.1-1.42-2.72-1.42-4.85s.48-3.74,1.42-4.84c.9-1.05,2.13-1.58,3.69-1.58ZM55.56,253.96c-.49-.75-1.18-1.13-2.07-1.13s-1.58.38-2.07,1.13c-.49.75-.73,1.84-.73,3.26s.24,2.5.73,3.24c.49.74,1.18,1.11,2.07,1.11s1.58-.37,2.07-1.11c.49-.74.73-1.82.73-3.24s-.24-2.5-.73-3.26Z"/>
      <path class="cls-1" d="M70.32,250.8c.76,0,1.45.13,2.08.39s1.16.66,1.61,1.19c.96,1.13,1.44,2.74,1.44,4.84s-.48,3.72-1.44,4.85c-.89,1.05-2.11,1.58-3.67,1.58s-2.81-.53-3.71-1.58c-.95-1.1-1.42-2.72-1.42-4.85s.48-3.74,1.42-4.84c.9-1.05,2.13-1.58,3.69-1.58ZM72.4,253.96c-.49-.75-1.18-1.13-2.07-1.13s-1.58.38-2.07,1.13c-.49.75-.73,1.84-.73,3.26s.24,2.5.73,3.24c.49.74,1.18,1.11,2.07,1.11s1.58-.37,2.07-1.11c.49-.74.73-1.82.73-3.24s-.24-2.5-.73-3.26Z"/>
      <path class="cls-1" d="M81.95,251.98c.95-.14,1.79-.47,2.51-1.01h1.69v12.41h-2.24v-9.73c-.65.32-1.3.47-1.96.47v-2.15Z"/>
      <path class="cls-1" d="M93.53,251.98c.95-.14,1.79-.47,2.51-1.01h1.69v12.41h-2.24v-9.73c-.65.32-1.3.47-1.96.47v-2.15Z"/>
      <path class="cls-1" d="M110.33,250.8c.76,0,1.45.13,2.08.39s1.16.66,1.61,1.19c.96,1.13,1.44,2.74,1.44,4.84s-.48,3.72-1.44,4.85c-.89,1.05-2.11,1.58-3.67,1.58s-2.81-.53-3.71-1.58c-.95-1.1-1.42-2.72-1.42-4.85s.48-3.74,1.42-4.84c.9-1.05,2.13-1.58,3.69-1.58ZM112.41,253.96c-.49-.75-1.18-1.13-2.07-1.13s-1.58.38-2.07,1.13c-.49.75-.73,1.84-.73,3.26s.24,2.5.73,3.24c.49.74,1.18,1.11,2.07,1.11s1.58-.37,2.07-1.11c.49-.74.73-1.82.73-3.24s-.24-2.5-.73-3.26Z"/>
      <path class="cls-1" d="M127.16,250.8c.76,0,1.45.13,2.08.39s1.16.66,1.61,1.19c.96,1.13,1.44,2.74,1.44,4.84s-.48,3.72-1.44,4.85c-.89,1.05-2.11,1.58-3.67,1.58s-2.81-.53-3.71-1.58c-.95-1.1-1.42-2.72-1.42-4.85s.48-3.74,1.42-4.84c.9-1.05,2.13-1.58,3.69-1.58ZM129.24,253.96c-.49-.75-1.18-1.13-2.07-1.13s-1.58.38-2.07,1.13c-.49.75-.73,1.84-.73,3.26s.24,2.5.73,3.24c.49.74,1.18,1.11,2.07,1.11s1.58-.37,2.07-1.11c.49-.74.73-1.82.73-3.24s-.24-2.5-.73-3.26Z"/>
      <path class="cls-1" d="M144,250.8c.76,0,1.45.13,2.08.39s1.16.66,1.61,1.19c.96,1.13,1.44,2.74,1.44,4.84s-.48,3.72-1.44,4.85c-.89,1.05-2.11,1.58-3.67,1.58s-2.81-.53-3.71-1.58c-.95-1.1-1.42-2.72-1.42-4.85s.48-3.74,1.42-4.84c.9-1.05,2.13-1.58,3.69-1.58ZM146.08,253.96c-.49-.75-1.18-1.13-2.07-1.13s-1.58.38-2.07,1.13c-.49.75-.73,1.84-.73,3.26s.24,2.5.73,3.24c.49.74,1.18,1.11,2.07,1.11s1.58-.37,2.07-1.11c.49-.74.73-1.82.73-3.24s-.24-2.5-.73-3.26Z"/>
      <path class="cls-1" d="M271.76,251.98c.95-.14,1.79-.47,2.51-1.01h1.69v12.41h-2.24v-9.73c-.65.32-1.3.47-1.96.47v-2.15Z"/>
      <path class="cls-1" d="M283.35,251.98c.95-.14,1.79-.47,2.51-1.01h1.69v12.41h-2.24v-9.73c-.65.32-1.3.47-1.96.47v-2.15Z"/>
      <path class="cls-1" d="M300.15,250.8c.76,0,1.45.13,2.08.39.63.26,1.16.66,1.61,1.19.96,1.13,1.44,2.74,1.44,4.84s-.48,3.72-1.44,4.85c-.89,1.05-2.11,1.58-3.67,1.58s-2.81-.53-3.71-1.58c-.95-1.1-1.43-2.72-1.43-4.85s.48-3.74,1.43-4.84c.9-1.05,2.13-1.58,3.69-1.58ZM302.23,253.96c-.49-.75-1.18-1.13-2.07-1.13s-1.58.38-2.07,1.13c-.49.75-.73,1.84-.73,3.26s.24,2.5.73,3.24c.49.74,1.18,1.11,2.07,1.11s1.58-.37,2.07-1.11c.49-.74.73-1.82.73-3.24s-.24-2.5-.73-3.26Z"/>
      <path class="cls-1" d="M311.77,251.98c.95-.14,1.79-.47,2.51-1.01h1.69v12.41h-2.24v-9.73c-.65.32-1.3.47-1.96.47v-2.15Z"/>
      <path class="cls-1" d="M323.36,251.98c.95-.14,1.79-.47,2.51-1.01h1.69v12.41h-2.24v-9.73c-.65.32-1.3.47-1.96.47v-2.15Z"/>
      <path class="cls-1" d="M340.16,250.8c.76,0,1.45.13,2.08.39.63.26,1.16.66,1.61,1.19.96,1.13,1.44,2.74,1.44,4.84s-.48,3.72-1.44,4.85c-.89,1.05-2.11,1.58-3.67,1.58s-2.81-.53-3.71-1.58c-.95-1.1-1.43-2.72-1.43-4.85s.48-3.74,1.43-4.84c.9-1.05,2.13-1.58,3.69-1.58ZM342.24,253.96c-.49-.75-1.18-1.13-2.07-1.13s-1.58.38-2.07,1.13c-.49.75-.73,1.84-.73,3.26s.24,2.5.73,3.24c.49.74,1.18,1.11,2.07,1.11s1.58-.37,2.07-1.11c.49-.74.73-1.82.73-3.24s-.24-2.5-.73-3.26Z"/>
      <path class="cls-1" d="M351.79,251.98c.95-.14,1.79-.47,2.51-1.01h1.69v12.41h-2.24v-9.73c-.65.32-1.3.47-1.96.47v-2.15Z"/>
      <path class="cls-1" d="M363.38,251.98c.95-.14,1.79-.47,2.51-1.01h1.69v12.41h-2.24v-9.73c-.65.32-1.3.47-1.96.47v-2.15Z"/>
      <path class="cls-1" d="M374.97,251.98c.95-.14,1.79-.47,2.51-1.01h1.69v12.41h-2.24v-9.73c-.65.32-1.3.47-1.96.47v-2.15Z"/>
      <path class="cls-1" d="M32.9,274.78c.95-.14,1.79-.47,2.51-1.01h1.69v12.41h-2.24v-9.73c-.65.32-1.3.47-1.96.47v-2.15Z"/>
      <path class="cls-1" d="M49.7,273.6c.76,0,1.45.13,2.08.39s1.16.66,1.61,1.19c.96,1.13,1.44,2.74,1.44,4.84s-.48,3.72-1.44,4.85c-.89,1.05-2.11,1.58-3.67,1.58s-2.81-.53-3.71-1.58c-.95-1.1-1.42-2.72-1.42-4.85s.48-3.74,1.42-4.84c.9-1.05,2.13-1.58,3.69-1.58ZM51.78,276.76c-.49-.75-1.18-1.13-2.07-1.13s-1.58.38-2.07,1.13c-.49.75-.73,1.84-.73,3.26s.24,2.5.73,3.24c.49.74,1.18,1.11,2.07,1.11s1.58-.37,2.07-1.11c.49-.74.73-1.82.73-3.24s-.24-2.5-.73-3.26Z"/>
      <path class="cls-1" d="M61.33,274.78c.95-.14,1.79-.47,2.51-1.01h1.69v12.41h-2.24v-9.73c-.65.32-1.3.47-1.96.47v-2.15Z"/>
      <path class="cls-1" d="M72.92,274.78c.95-.14,1.79-.47,2.51-1.01h1.69v12.41h-2.24v-9.73c-.65.32-1.3.47-1.96.47v-2.15Z"/>
      <path class="cls-1" d="M89.71,273.6c.76,0,1.45.13,2.08.39s1.16.66,1.61,1.19c.96,1.13,1.44,2.74,1.44,4.84s-.48,3.72-1.44,4.85c-.89,1.05-2.11,1.58-3.67,1.58s-2.81-.53-3.71-1.58c-.95-1.1-1.42-2.72-1.42-4.85s.48-3.74,1.42-4.84c.9-1.05,2.13-1.58,3.69-1.58ZM91.79,276.76c-.49-.75-1.18-1.13-2.07-1.13s-1.58.38-2.07,1.13c-.49.75-.73,1.84-.73,3.26s.24,2.5.73,3.24c.49.74,1.18,1.11,2.07,1.11s1.58-.37,2.07-1.11c.49-.74.73-1.82.73-3.24s-.24-2.5-.73-3.26Z"/>
      <path class="cls-1" d="M101.34,274.78c.95-.14,1.79-.47,2.51-1.01h1.69v12.41h-2.24v-9.73c-.65.32-1.3.47-1.96.47v-2.15Z"/>
      <path class="cls-1" d="M112.93,274.78c.95-.14,1.79-.47,2.51-1.01h1.69v12.41h-2.24v-9.73c-.65.32-1.3.47-1.96.47v-2.15Z"/>
      <path class="cls-1" d="M124.52,274.78c.95-.14,1.79-.47,2.51-1.01h1.69v12.41h-2.24v-9.73c-.65.32-1.3.47-1.96.47v-2.15Z"/>
      <path class="cls-1" d="M141.31,273.6c.76,0,1.45.13,2.08.39s1.16.66,1.61,1.19c.96,1.13,1.44,2.74,1.44,4.84s-.48,3.72-1.44,4.85c-.89,1.05-2.11,1.58-3.67,1.58s-2.81-.53-3.71-1.58c-.95-1.1-1.42-2.72-1.42-4.85s.48-3.74,1.42-4.84c.9-1.05,2.13-1.58,3.69-1.58ZM143.39,276.76c-.49-.75-1.18-1.13-2.07-1.13s-1.58.38-2.07,1.13c-.49.75-.73,1.84-.73,3.26s.24,2.5.73,3.24c.49.74,1.18,1.11,2.07,1.11s1.58-.37,2.07-1.11c.49-.74.73-1.82.73-3.24s-.24-2.5-.73-3.26Z"/>
      <path class="cls-1" d="M280.75,273.6c.76,0,1.45.13,2.08.39.63.26,1.16.66,1.61,1.19.96,1.13,1.44,2.74,1.44,4.84s-.48,3.72-1.44,4.85c-.89,1.05-2.11,1.58-3.67,1.58s-2.81-.53-3.71-1.58c-.95-1.1-1.43-2.72-1.43-4.85s.48-3.74,1.43-4.84c.9-1.05,2.13-1.58,3.69-1.58ZM282.83,276.76c-.49-.75-1.18-1.13-2.07-1.13s-1.58.38-2.07,1.13c-.49.75-.73,1.84-.73,3.26s.24,2.5.73,3.24c.49.74,1.18,1.11,2.07,1.11s1.58-.37,2.07-1.11c.49-.74.73-1.82.73-3.24s-.24-2.5-.73-3.26Z"/>
      <path class="cls-1" d="M292.38,274.78c.95-.14,1.79-.47,2.51-1.01h1.69v12.41h-2.24v-9.73c-.65.32-1.3.47-1.96.47v-2.15Z"/>
      <path class="cls-1" d="M303.97,274.78c.95-.14,1.79-.47,2.51-1.01h1.69v12.41h-2.24v-9.73c-.65.32-1.3.47-1.96.47v-2.15Z"/>
      <path class="cls-1" d="M320.77,273.6c.76,0,1.45.13,2.08.39.63.26,1.16.66,1.61,1.19.96,1.13,1.44,2.74,1.44,4.84s-.48,3.72-1.44,4.85c-.89,1.05-2.11,1.58-3.67,1.58s-2.81-.53-3.71-1.58c-.95-1.1-1.43-2.72-1.43-4.85s.48-3.74,1.43-4.84c.9-1.05,2.13-1.58,3.69-1.58ZM322.85,276.76c-.49-.75-1.18-1.13-2.07-1.13s-1.58.38-2.07,1.13c-.49.75-.73,1.84-.73,3.26s.24,2.5.73,3.24c.49.74,1.18,1.11,2.07,1.11s1.58-.37,2.07-1.11c.49-.74.73-1.82.73-3.24s-.24-2.5-.73-3.26Z"/>
      <path class="cls-1" d="M337.6,273.6c.76,0,1.45.13,2.08.39.63.26,1.16.66,1.61,1.19.96,1.13,1.44,2.74,1.44,4.84s-.48,3.72-1.44,4.85c-.89,1.05-2.11,1.58-3.67,1.58s-2.81-.53-3.71-1.58c-.95-1.1-1.43-2.72-1.43-4.85s.48-3.74,1.43-4.84c.9-1.05,2.13-1.58,3.69-1.58ZM339.68,276.76c-.49-.75-1.18-1.13-2.07-1.13s-1.58.38-2.07,1.13c-.49.75-.73,1.84-.73,3.26s.24,2.5.73,3.24c.49.74,1.18,1.11,2.07,1.11s1.58-.37,2.07-1.11c.49-.74.73-1.82.73-3.24s-.24-2.5-.73-3.26Z"/>
      <path class="cls-1" d="M349.23,274.78c.95-.14,1.79-.47,2.51-1.01h1.69v12.41h-2.24v-9.73c-.65.32-1.3.47-1.96.47v-2.15Z"/>
      <path class="cls-1" d="M360.82,274.78c.95-.14,1.79-.47,2.51-1.01h1.69v12.41h-2.24v-9.73c-.65.32-1.3.47-1.96.47v-2.15Z"/>
      <path class="cls-1" d="M377.61,273.6c.76,0,1.45.13,2.08.39.63.26,1.16.66,1.61,1.19.96,1.13,1.44,2.74,1.44,4.84s-.48,3.72-1.44,4.85c-.89,1.05-2.11,1.58-3.67,1.58s-2.81-.53-3.71-1.58c-.95-1.1-1.43-2.72-1.43-4.85s.48-3.74,1.43-4.84c.9-1.05,2.13-1.58,3.69-1.58ZM379.69,276.76c-.49-.75-1.18-1.13-2.07-1.13s-1.58.38-2.07,1.13c-.49.75-.73,1.84-.73,3.26s.24,2.5.73,3.24c.49.74,1.18,1.11,2.07,1.11s1.58-.37,2.07-1.11c.49-.74.73-1.82.73-3.24s-.24-2.5-.73-3.26Z"/>
      <path class="cls-1" d="M34.42,296.4c.76,0,1.45.13,2.08.39s1.16.66,1.61,1.19c.96,1.13,1.44,2.74,1.44,4.84s-.48,3.72-1.44,4.85c-.89,1.05-2.11,1.58-3.67,1.58s-2.81-.53-3.71-1.58c-.95-1.1-1.42-2.72-1.42-4.85s.48-3.74,1.42-4.84c.9-1.05,2.13-1.58,3.69-1.58ZM36.5,299.56c-.49-.75-1.18-1.13-2.07-1.13s-1.58.38-2.07,1.13c-.49.75-.73,1.84-.73,3.26s.24,2.5.73,3.24c.49.74,1.18,1.11,2.07,1.11s1.58-.37,2.07-1.11c.49-.74.73-1.82.73-3.24s-.24-2.5-.73-3.26Z"/>
      <path class="cls-1" d="M46.05,297.58c.95-.14,1.79-.47,2.51-1.01h1.69v12.41h-2.24v-9.73c-.65.32-1.3.47-1.96.47v-2.15Z"/>
      <path class="cls-1" d="M57.64,297.58c.95-.14,1.79-.47,2.51-1.01h1.69v12.41h-2.24v-9.73c-.65.32-1.3.47-1.96.47v-2.15Z"/>
      <path class="cls-1" d="M74.43,296.4c.76,0,1.45.13,2.08.39s1.16.66,1.61,1.19c.96,1.13,1.44,2.74,1.44,4.84s-.48,3.72-1.44,4.85c-.89,1.05-2.11,1.58-3.67,1.58s-2.81-.53-3.71-1.58c-.95-1.1-1.42-2.72-1.42-4.85s.48-3.74,1.42-4.84c.9-1.05,2.13-1.58,3.69-1.58ZM76.51,299.56c-.49-.75-1.18-1.13-2.07-1.13s-1.58.38-2.07,1.13c-.49.75-.73,1.84-.73,3.26s.24,2.5.73,3.24c.49.74,1.18,1.11,2.07,1.11s1.58-.37,2.07-1.11c.49-.74.73-1.82.73-3.24s-.24-2.5-.73-3.26Z"/>
      <path class="cls-1" d="M91.27,296.4c.76,0,1.45.13,2.08.39s1.16.66,1.61,1.19c.96,1.13,1.44,2.74,1.44,4.84s-.48,3.72-1.44,4.85c-.89,1.05-2.11,1.58-3.67,1.58s-2.81-.53-3.71-1.58c-.95-1.1-1.42-2.72-1.42-4.85s.48-3.74,1.42-4.84c.9-1.05,2.13-1.58,3.69-1.58ZM93.35,299.56c-.49-.75-1.18-1.13-2.07-1.13s-1.58.38-2.07,1.13c-.49.75-.73,1.84-.73,3.26s.24,2.5.73,3.24c.49.74,1.18,1.11,2.07,1.11s1.58-.37,2.07-1.11c.49-.74.73-1.82.73-3.24s-.24-2.5-.73-3.26Z"/>
      <path class="cls-1" d="M108.1,296.4c.76,0,1.45.13,2.08.39s1.16.66,1.61,1.19c.96,1.13,1.44,2.74,1.44,4.84s-.48,3.72-1.44,4.85c-.89,1.05-2.11,1.58-3.67,1.58s-2.81-.53-3.71-1.58c-.95-1.1-1.42-2.72-1.42-4.85s.48-3.74,1.42-4.84c.9-1.05,2.13-1.58,3.69-1.58ZM110.18,299.56c-.49-.75-1.18-1.13-2.07-1.13s-1.58.38-2.07,1.13c-.49.75-.73,1.84-.73,3.26s.24,2.5.73,3.24c.49.74,1.18,1.11,2.07,1.11s1.58-.37,2.07-1.11c.49-.74.73-1.82.73-3.24s-.24-2.5-.73-3.26Z"/>
      <path class="cls-1" d="M124.93,296.4c.76,0,1.45.13,2.08.39s1.16.66,1.61,1.19c.96,1.13,1.44,2.74,1.44,4.84s-.48,3.72-1.44,4.85c-.89,1.05-2.11,1.58-3.67,1.58s-2.81-.53-3.71-1.58c-.95-1.1-1.42-2.72-1.42-4.85s.48-3.74,1.42-4.84c.9-1.05,2.13-1.58,3.69-1.58ZM127.01,299.56c-.49-.75-1.18-1.13-2.07-1.13s-1.58.38-2.07,1.13c-.49.75-.73,1.84-.73,3.26s.24,2.5.73,3.24c.49.74,1.18,1.11,2.07,1.11s1.58-.37,2.07-1.11c.49-.74.73-1.82.73-3.24s-.24-2.5-.73-3.26Z"/>
      <path class="cls-1" d="M136.56,297.58c.95-.14,1.79-.47,2.51-1.01h1.69v12.41h-2.24v-9.73c-.65.32-1.3.47-1.96.47v-2.15Z"/>
      <path class="cls-1" d="M276.58,296.4c.76,0,1.45.13,2.08.39.63.26,1.16.66,1.61,1.19.96,1.13,1.44,2.74,1.44,4.84s-.48,3.72-1.44,4.85c-.89,1.05-2.11,1.58-3.67,1.58s-2.81-.53-3.71-1.58c-.95-1.1-1.43-2.72-1.43-4.85s.48-3.74,1.43-4.84c.9-1.05,2.13-1.58,3.69-1.58ZM278.66,299.56c-.49-.75-1.18-1.13-2.07-1.13s-1.58.38-2.07,1.13c-.49.75-.73,1.84-.73,3.26s.24,2.5.73,3.24c.49.74,1.18,1.11,2.07,1.11s1.58-.37,2.07-1.11c.49-.74.73-1.82.73-3.24s-.24-2.5-.73-3.26Z"/>
      <path class="cls-1" d="M288.2,297.58c.95-.14,1.79-.47,2.51-1.01h1.69v12.41h-2.24v-9.73c-.65.32-1.3.47-1.96.47v-2.15Z"/>
      <path class="cls-1" d="M299.79,297.58c.95-.14,1.79-.47,2.51-1.01h1.69v12.41h-2.24v-9.73c-.65.32-1.3.47-1.96.47v-2.15Z"/>
      <path class="cls-1" d="M311.38,297.58c.95-.14,1.79-.47,2.51-1.01h1.69v12.41h-2.24v-9.73c-.65.32-1.3.47-1.96.47v-2.15Z"/>
      <path class="cls-1" d="M328.18,296.4c.76,0,1.45.13,2.08.39.63.26,1.16.66,1.61,1.19.96,1.13,1.44,2.74,1.44,4.84s-.48,3.72-1.44,4.85c-.89,1.05-2.11,1.58-3.67,1.58s-2.81-.53-3.71-1.58c-.95-1.1-1.43-2.72-1.43-4.85s.48-3.74,1.43-4.84c.9-1.05,2.13-1.58,3.69-1.58ZM330.26,299.56c-.49-.75-1.18-1.13-2.07-1.13s-1.58.38-2.07,1.13c-.49.75-.73,1.84-.73,3.26s.24,2.5.73,3.24c.49.74,1.18,1.11,2.07,1.11s1.58-.37,2.07-1.11c.49-.74.73-1.82.73-3.24s-.24-2.5-.73-3.26Z"/>
      <path class="cls-1" d="M345.01,296.4c.76,0,1.45.13,2.08.39.63.26,1.16.66,1.61,1.19.96,1.13,1.44,2.74,1.44,4.84s-.48,3.72-1.44,4.85c-.89,1.05-2.11,1.58-3.67,1.58s-2.81-.53-3.71-1.58c-.95-1.1-1.43-2.72-1.43-4.85s.48-3.74,1.43-4.84c.9-1.05,2.13-1.58,3.69-1.58ZM347.1,299.56c-.49-.75-1.18-1.13-2.07-1.13s-1.58.38-2.07,1.13c-.49.75-.73,1.84-.73,3.26s.24,2.5.73,3.24c.49.74,1.18,1.11,2.07,1.11s1.58-.37,2.07-1.11c.49-.74.73-1.82.73-3.24s-.24-2.5-.73-3.26Z"/>
      <path class="cls-1" d="M356.64,297.58c.95-.14,1.79-.47,2.51-1.01h1.69v12.41h-2.24v-9.73c-.65.32-1.3.47-1.96.47v-2.15Z"/>
      <path class="cls-1" d="M373.44,296.4c.76,0,1.45.13,2.08.39.63.26,1.16.66,1.61,1.19.96,1.13,1.44,2.74,1.44,4.84s-.48,3.72-1.44,4.85c-.89,1.05-2.11,1.58-3.67,1.58s-2.81-.53-3.71-1.58c-.95-1.1-1.43-2.72-1.43-4.85s.48-3.74,1.43-4.84c.9-1.05,2.13-1.58,3.69-1.58ZM375.52,299.56c-.49-.75-1.18-1.13-2.07-1.13s-1.58.38-2.07,1.13c-.49.75-.73,1.84-.73,3.26s.24,2.5.73,3.24c.49.74,1.18,1.11,2.07,1.11s1.58-.37,2.07-1.11c.49-.74.73-1.82.73-3.24s-.24-2.5-.73-3.26Z"/>
      <path class="cls-1" d="M390.27,296.4c.76,0,1.45.13,2.08.39.63.26,1.16.66,1.61,1.19.96,1.13,1.44,2.74,1.44,4.84s-.48,3.72-1.44,4.85c-.89,1.05-2.11,1.58-3.67,1.58s-2.81-.53-3.71-1.58c-.95-1.1-1.43-2.72-1.43-4.85s.48-3.74,1.43-4.84c.9-1.05,2.13-1.58,3.69-1.58ZM392.35,299.56c-.49-.75-1.18-1.13-2.07-1.13s-1.58.38-2.07,1.13c-.49.75-.73,1.84-.73,3.26s.24,2.5.73,3.24c.49.74,1.18,1.11,2.07,1.11s1.58-.37,2.07-1.11c.49-.74.73-1.82.73-3.24s-.24-2.5-.73-3.26Z"/>
      <path class="cls-1" d="M12.28,320.38c.95-.14,1.79-.47,2.51-1.01h1.69v12.41h-2.24v-9.73c-.65.32-1.3.47-1.96.47v-2.15Z"/>
      <path class="cls-1" d="M23.87,320.38c.95-.14,1.79-.47,2.51-1.01h1.69v12.41h-2.24v-9.73c-.65.32-1.3.47-1.96.47v-2.15Z"/>
      <path class="cls-1" d="M40.67,319.2c.76,0,1.45.13,2.08.39s1.16.66,1.61,1.19c.96,1.13,1.44,2.74,1.44,4.84s-.48,3.72-1.44,4.85c-.89,1.05-2.11,1.58-3.67,1.58s-2.81-.53-3.71-1.58c-.95-1.1-1.42-2.72-1.42-4.85s.48-3.74,1.42-4.84c.9-1.05,2.13-1.58,3.69-1.58ZM42.75,322.36c-.49-.75-1.18-1.13-2.07-1.13s-1.58.38-2.07,1.13c-.49.75-.73,1.84-.73,3.26s.24,2.5.73,3.24c.49.74,1.18,1.11,2.07,1.11s1.58-.37,2.07-1.11c.49-.74.73-1.82.73-3.24s-.24-2.5-.73-3.26Z"/>
      <path class="cls-1" d="M52.29,320.38c.95-.14,1.79-.47,2.51-1.01h1.69v12.41h-2.24v-9.73c-.65.32-1.3.47-1.96.47v-2.15Z"/>
      <path class="cls-1" d="M69.09,319.2c.76,0,1.45.13,2.08.39s1.16.66,1.61,1.19c.96,1.13,1.44,2.74,1.44,4.84s-.48,3.72-1.44,4.85c-.89,1.05-2.11,1.58-3.67,1.58s-2.81-.53-3.71-1.58c-.95-1.1-1.42-2.72-1.42-4.85s.48-3.74,1.42-4.84c.9-1.05,2.13-1.58,3.69-1.58ZM71.17,322.36c-.49-.75-1.18-1.13-2.07-1.13s-1.58.38-2.07,1.13c-.49.75-.73,1.84-.73,3.26s.24,2.5.73,3.24c.49.74,1.18,1.11,2.07,1.11s1.58-.37,2.07-1.11c.49-.74.73-1.82.73-3.24s-.24-2.5-.73-3.26Z"/>
      <path class="cls-1" d="M85.92,319.2c.76,0,1.45.13,2.08.39s1.16.66,1.61,1.19c.96,1.13,1.44,2.74,1.44,4.84s-.48,3.72-1.44,4.85c-.89,1.05-2.11,1.58-3.67,1.58s-2.81-.53-3.71-1.58c-.95-1.1-1.42-2.72-1.42-4.85s.48-3.74,1.42-4.84c.9-1.05,2.13-1.58,3.69-1.58ZM88,322.36c-.49-.75-1.18-1.13-2.07-1.13s-1.58.38-2.07,1.13c-.49.75-.73,1.84-.73,3.26s.24,2.5.73,3.24c.49.74,1.18,1.11,2.07,1.11s1.58-.37,2.07-1.11c.49-.74.73-1.82.73-3.24s-.24-2.5-.73-3.26Z"/>
      <path class="cls-1" d="M102.76,319.2c.76,0,1.45.13,2.08.39s1.16.66,1.61,1.19c.96,1.13,1.44,2.74,1.44,4.84s-.48,3.72-1.44,4.85c-.89,1.05-2.11,1.58-3.67,1.58s-2.81-.53-3.71-1.58c-.95-1.1-1.42-2.72-1.42-4.85s.48-3.74,1.42-4.84c.9-1.05,2.13-1.58,3.69-1.58ZM104.84,322.36c-.49-.75-1.18-1.13-2.07-1.13s-1.58.38-2.07,1.13c-.49.75-.73,1.84-.73,3.26s.24,2.5.73,3.24c.49.74,1.18,1.11,2.07,1.11s1.58-.37,2.07-1.11c.49-.74.73-1.82.73-3.24s-.24-2.5-.73-3.26Z"/>
      <path class="cls-1" d="M119.59,319.2c.76,0,1.45.13,2.08.39s1.16.66,1.61,1.19c.96,1.13,1.44,2.74,1.44,4.84s-.48,3.72-1.44,4.85c-.89,1.05-2.11,1.58-3.67,1.58s-2.81-.53-3.71-1.58c-.95-1.1-1.42-2.72-1.42-4.85s.48-3.74,1.42-4.84c.9-1.05,2.13-1.58,3.69-1.58ZM121.67,322.36c-.49-.75-1.18-1.13-2.07-1.13s-1.58.38-2.07,1.13c-.49.75-.73,1.84-.73,3.26s.24,2.5.73,3.24c.49.74,1.18,1.11,2.07,1.11s1.58-.37,2.07-1.11c.49-.74.73-1.82.73-3.24s-.24-2.5-.73-3.26Z"/>
      <path class="cls-1" d="M131.22,320.38c.95-.14,1.79-.47,2.51-1.01h1.69v12.41h-2.24v-9.73c-.65.32-1.3.47-1.96.47v-2.15Z"/>
      <path class="cls-1" d="M142.81,320.38c.95-.14,1.79-.47,2.51-1.01h1.69v12.41h-2.24v-9.73c-.65.32-1.3.47-1.96.47v-2.15Z"/>
      <path class="cls-1" d="M279.3,319.2c.76,0,1.45.13,2.08.39.63.26,1.16.66,1.61,1.19.96,1.13,1.44,2.74,1.44,4.84s-.48,3.72-1.44,4.85c-.89,1.05-2.11,1.58-3.67,1.58s-2.81-.53-3.71-1.58c-.95-1.1-1.43-2.72-1.43-4.85s.48-3.74,1.43-4.84c.9-1.05,2.13-1.58,3.69-1.58ZM281.38,322.36c-.49-.75-1.18-1.13-2.07-1.13s-1.58.38-2.07,1.13c-.49.75-.73,1.84-.73,3.26s.24,2.5.73,3.24c.49.74,1.18,1.11,2.07,1.11s1.58-.37,2.07-1.11c.49-.74.73-1.82.73-3.24s-.24-2.5-.73-3.26Z"/>
      <path class="cls-1" d="M296.13,319.2c.76,0,1.45.13,2.08.39.63.26,1.16.66,1.61,1.19.96,1.13,1.44,2.74,1.44,4.84s-.48,3.72-1.44,4.85c-.89,1.05-2.11,1.58-3.67,1.58s-2.81-.53-3.71-1.58c-.95-1.1-1.43-2.72-1.43-4.85s.48-3.74,1.43-4.84c.9-1.05,2.13-1.58,3.69-1.58ZM298.21,322.36c-.49-.75-1.18-1.13-2.07-1.13s-1.58.38-2.07,1.13c-.49.75-.73,1.84-.73,3.26s.24,2.5.73,3.24c.49.74,1.18,1.11,2.07,1.11s1.58-.37,2.07-1.11c.49-.74.73-1.82.73-3.24s-.24-2.5-.73-3.26Z"/>
      <path class="cls-1" d="M312.97,319.2c.76,0,1.45.13,2.08.39.63.26,1.16.66,1.61,1.19.96,1.13,1.44,2.74,1.44,4.84s-.48,3.72-1.44,4.85c-.89,1.05-2.11,1.58-3.67,1.58s-2.81-.53-3.71-1.58c-.95-1.1-1.43-2.72-1.43-4.85s.48-3.74,1.43-4.84c.9-1.05,2.13-1.58,3.69-1.58ZM315.05,322.36c-.49-.75-1.18-1.13-2.07-1.13s-1.58.38-2.07,1.13c-.49.75-.73,1.84-.73,3.26s.24,2.5.73,3.24c.49.74,1.18,1.11,2.07,1.11s1.58-.37,2.07-1.11c.49-.74.73-1.82.73-3.24s-.24-2.5-.73-3.26Z"/>
      <path class="cls-1" d="M329.8,319.2c.76,0,1.45.13,2.08.39.63.26,1.16.66,1.61,1.19.96,1.13,1.44,2.74,1.44,4.84s-.48,3.72-1.44,4.85c-.89,1.05-2.11,1.58-3.67,1.58s-2.81-.53-3.71-1.58c-.95-1.1-1.43-2.72-1.43-4.85s.48-3.74,1.43-4.84c.9-1.05,2.13-1.58,3.69-1.58ZM331.88,322.36c-.49-.75-1.18-1.13-2.07-1.13s-1.58.38-2.07,1.13c-.49.75-.73,1.84-.73,3.26s.24,2.5.73,3.24c.49.74,1.18,1.11,2.07,1.11s1.58-.37,2.07-1.11c.49-.74.73-1.82.73-3.24s-.24-2.5-.73-3.26Z"/>
      <path class="cls-1" d="M341.43,320.38c.95-.14,1.79-.47,2.51-1.01h1.69v12.41h-2.24v-9.73c-.65.32-1.3.47-1.96.47v-2.15Z"/>
      <path class="cls-1" d="M358.22,319.2c.76,0,1.45.13,2.08.39.63.26,1.16.66,1.61,1.19.96,1.13,1.44,2.74,1.44,4.84s-.48,3.72-1.44,4.85c-.89,1.05-2.11,1.58-3.67,1.58s-2.81-.53-3.71-1.58c-.95-1.1-1.43-2.72-1.43-4.85s.48-3.74,1.43-4.84c.9-1.05,2.13-1.58,3.69-1.58ZM360.31,322.36c-.49-.75-1.18-1.13-2.07-1.13s-1.58.38-2.07,1.13c-.49.75-.73,1.84-.73,3.26s.24,2.5.73,3.24c.49.74,1.18,1.11,2.07,1.11s1.58-.37,2.07-1.11c.49-.74.73-1.82.73-3.24s-.24-2.5-.73-3.26Z"/>
      <path class="cls-1" d="M369.85,320.38c.95-.14,1.79-.47,2.51-1.01h1.69v12.41h-2.24v-9.73c-.65.32-1.3.47-1.96.47v-2.15Z"/>
      <path class="cls-1" d="M381.44,320.38c.95-.14,1.79-.47,2.51-1.01h1.69v12.41h-2.24v-9.73c-.65.32-1.3.47-1.96.47v-2.15Z"/>
      <path class="cls-1" d="M398.24,319.2c.76,0,1.45.13,2.08.39.63.26,1.16.66,1.61,1.19.96,1.13,1.44,2.74,1.44,4.84s-.48,3.72-1.44,4.85c-.89,1.05-2.11,1.58-3.67,1.58s-2.81-.53-3.71-1.58c-.95-1.1-1.43-2.72-1.43-4.85s.48-3.74,1.43-4.84c.9-1.05,2.13-1.58,3.69-1.58ZM400.32,322.36c-.49-.75-1.18-1.13-2.07-1.13s-1.58.38-2.07,1.13c-.49.75-.73,1.84-.73,3.26s.24,2.5.73,3.24c.49.74,1.18,1.11,2.07,1.11s1.58-.37,2.07-1.11c.49-.74.73-1.82.73-3.24s-.24-2.5-.73-3.26Z"/>
      <path class="cls-1" d="M5.11,342c.76,0,1.45.13,2.08.39s1.16.66,1.61,1.19c.96,1.13,1.44,2.74,1.44,4.84s-.48,3.72-1.44,4.85c-.89,1.05-2.11,1.58-3.67,1.58s-2.81-.53-3.71-1.58c-.95-1.1-1.42-2.72-1.42-4.85s.48-3.74,1.42-4.84c.9-1.05,2.13-1.58,3.69-1.58ZM7.19,345.16c-.49-.75-1.18-1.13-2.07-1.13s-1.58.38-2.07,1.13c-.49.75-.73,1.84-.73,3.26s.24,2.5.73,3.24c.49.74,1.18,1.11,2.07,1.11s1.58-.37,2.07-1.11c.49-.74.73-1.82.73-3.24s-.24-2.5-.73-3.26Z"/>
      <path class="cls-1" d="M21.94,342c.76,0,1.45.13,2.08.39s1.16.66,1.61,1.19c.96,1.13,1.44,2.74,1.44,4.84s-.48,3.72-1.44,4.85c-.89,1.05-2.11,1.58-3.67,1.58s-2.81-.53-3.71-1.58c-.95-1.1-1.42-2.72-1.42-4.85s.48-3.74,1.42-4.84c.9-1.05,2.13-1.58,3.69-1.58ZM24.02,345.16c-.49-.75-1.18-1.13-2.07-1.13s-1.58.38-2.07,1.13c-.49.75-.73,1.84-.73,3.26s.24,2.5.73,3.24c.49.74,1.18,1.11,2.07,1.11s1.58-.37,2.07-1.11c.49-.74.73-1.82.73-3.24s-.24-2.5-.73-3.26Z"/>
      <path class="cls-1" d="M33.57,343.18c.95-.14,1.79-.47,2.51-1.01h1.69v12.41h-2.24v-9.73c-.65.32-1.3.47-1.96.47v-2.15Z"/>
      <path class="cls-1" d="M45.16,343.18c.95-.14,1.79-.47,2.51-1.01h1.69v12.41h-2.24v-9.73c-.65.32-1.3.47-1.96.47v-2.15Z"/>
      <path class="cls-1" d="M61.96,342c.76,0,1.45.13,2.08.39s1.16.66,1.61,1.19c.96,1.13,1.44,2.74,1.44,4.84s-.48,3.72-1.44,4.85c-.89,1.05-2.11,1.58-3.67,1.58s-2.81-.53-3.71-1.58c-.95-1.1-1.42-2.72-1.42-4.85s.48-3.74,1.42-4.84c.9-1.05,2.13-1.58,3.69-1.58ZM64.04,345.16c-.49-.75-1.18-1.13-2.07-1.13s-1.58.38-2.07,1.13c-.49.75-.73,1.84-.73,3.26s.24,2.5.73,3.24c.49.74,1.18,1.11,2.07,1.11s1.58-.37,2.07-1.11c.49-.74.73-1.82.73-3.24s-.24-2.5-.73-3.26Z"/>
      <path class="cls-1" d="M73.58,343.18c.95-.14,1.79-.47,2.51-1.01h1.69v12.41h-2.24v-9.73c-.65.32-1.3.47-1.96.47v-2.15Z"/>
      <path class="cls-1" d="M85.17,343.18c.95-.14,1.79-.47,2.51-1.01h1.69v12.41h-2.24v-9.73c-.65.32-1.3.47-1.96.47v-2.15Z"/>
      <path class="cls-1" d="M101.97,342c.76,0,1.45.13,2.08.39s1.16.66,1.61,1.19c.96,1.13,1.44,2.74,1.44,4.84s-.48,3.72-1.44,4.85c-.89,1.05-2.11,1.58-3.67,1.58s-2.81-.53-3.71-1.58c-.95-1.1-1.42-2.72-1.42-4.85s.48-3.74,1.42-4.84c.9-1.05,2.13-1.58,3.69-1.58ZM104.05,345.16c-.49-.75-1.18-1.13-2.07-1.13s-1.58.38-2.07,1.13c-.49.75-.73,1.84-.73,3.26s.24,2.5.73,3.24c.49.74,1.18,1.11,2.07,1.11s1.58-.37,2.07-1.11c.49-.74.73-1.82.73-3.24s-.24-2.5-.73-3.26Z"/>
      <path class="cls-1" d="M113.6,343.18c.95-.14,1.79-.47,2.51-1.01h1.69v12.41h-2.24v-9.73c-.65.32-1.3.47-1.96.47v-2.15Z"/>
      <path class="cls-1" d="M130.39,342c.76,0,1.45.13,2.08.39s1.16.66,1.61,1.19c.96,1.13,1.44,2.74,1.44,4.84s-.48,3.72-1.44,4.85c-.89,1.05-2.11,1.58-3.67,1.58s-2.81-.53-3.71-1.58c-.95-1.1-1.42-2.72-1.42-4.85s.48-3.74,1.42-4.84c.9-1.05,2.13-1.58,3.69-1.58ZM132.47,345.16c-.49-.75-1.18-1.13-2.07-1.13s-1.58.38-2.07,1.13c-.49.75-.73,1.84-.73,3.26s.24,2.5.73,3.24c.49.74,1.18,1.11,2.07,1.11s1.58-.37,2.07-1.11c.49-.74.73-1.82.73-3.24s-.24-2.5-.73-3.26Z"/>
      <path class="cls-1" d="M142.02,343.18c.95-.14,1.79-.47,2.51-1.01h1.69v12.41h-2.24v-9.73c-.65.32-1.3.47-1.96.47v-2.15Z"/>
      <path class="cls-1" d="M271.47,343.18c.95-.14,1.79-.47,2.51-1.01h1.69v12.41h-2.24v-9.73c-.65.32-1.3.47-1.96.47v-2.15Z"/>
      <path class="cls-1" d="M290.28,342c.76,0,1.45.13,2.08.39.63.26,1.16.66,1.61,1.19.96,1.13,1.44,2.74,1.44,4.84s-.48,3.72-1.44,4.85c-.89,1.05-2.11,1.58-3.67,1.58s-2.81-.53-3.71-1.58c-.95-1.1-1.43-2.72-1.43-4.85s.48-3.74,1.43-4.84c.9-1.05,2.13-1.58,3.69-1.58ZM292.36,345.16c-.49-.75-1.18-1.13-2.07-1.13s-1.58.38-2.07,1.13c-.49.75-.73,1.84-.73,3.26s.24,2.5.73,3.24c.49.74,1.18,1.11,2.07,1.11s1.58-.37,2.07-1.11c.49-.74.73-1.82.73-3.24s-.24-2.5-.73-3.26Z"/>
      <path class="cls-1" d="M304.92,343.18c.95-.14,1.79-.47,2.51-1.01h1.69v12.41h-2.24v-9.73c-.65.32-1.3.47-1.96.47v-2.15Z"/>
      <path class="cls-1" d="M321.65,343.18c.95-.14,1.79-.47,2.51-1.01h1.69v12.41h-2.24v-9.73c-.65.32-1.3.47-1.96.47v-2.15Z"/>
      <path class="cls-1" d="M340.47,342c.76,0,1.45.13,2.08.39.63.26,1.16.66,1.61,1.19.96,1.13,1.44,2.74,1.44,4.84s-.48,3.72-1.44,4.85c-.89,1.05-2.11,1.58-3.67,1.58s-2.81-.53-3.71-1.58c-.95-1.1-1.43-2.72-1.43-4.85s.48-3.74,1.43-4.84c.9-1.05,2.13-1.58,3.69-1.58ZM342.55,345.16c-.49-.75-1.18-1.13-2.07-1.13s-1.58.38-2.07,1.13c-.49.75-.73,1.84-.73,3.26s.24,2.5.73,3.24c.49.74,1.18,1.11,2.07,1.11s1.58-.37,2.07-1.11c.49-.74.73-1.82.73-3.24s-.24-2.5-.73-3.26Z"/>
      <path class="cls-1" d="M357.2,342c.76,0,1.45.13,2.08.39.63.26,1.16.66,1.61,1.19.96,1.13,1.44,2.74,1.44,4.84s-.48,3.72-1.44,4.85c-.89,1.05-2.11,1.58-3.67,1.58s-2.81-.53-3.71-1.58c-.95-1.1-1.43-2.72-1.43-4.85s.48-3.74,1.43-4.84c.9-1.05,2.13-1.58,3.69-1.58ZM359.28,345.16c-.49-.75-1.18-1.13-2.07-1.13s-1.58.38-2.07,1.13c-.49.75-.73,1.84-.73,3.26s.24,2.5.73,3.24c.49.74,1.18,1.11,2.07,1.11s1.58-.37,2.07-1.11c.49-.74.73-1.82.73-3.24s-.24-2.5-.73-3.26Z"/>
      <path class="cls-1" d="M371.83,343.18c.95-.14,1.79-.47,2.51-1.01h1.69v12.41h-2.24v-9.73c-.65.32-1.3.47-1.96.47v-2.15Z"/>
      <path class="cls-1" d="M388.56,343.18c.95-.14,1.79-.47,2.51-1.01h1.69v12.41h-2.24v-9.73c-.65.32-1.3.47-1.96.47v-2.15Z"/>
      <path class="cls-1" d="M407.38,342c.76,0,1.45.13,2.08.39.63.26,1.16.66,1.61,1.19.96,1.13,1.44,2.74,1.44,4.84s-.48,3.72-1.44,4.85c-.89,1.05-2.11,1.58-3.67,1.58s-2.81-.53-3.71-1.58c-.95-1.1-1.43-2.72-1.43-4.85s.48-3.74,1.43-4.84c.9-1.05,2.13-1.58,3.69-1.58ZM409.46,345.16c-.49-.75-1.18-1.13-2.07-1.13s-1.58.38-2.07,1.13c-.49.75-.73,1.84-.73,3.26s.24,2.5.73,3.24c.49.74,1.18,1.11,2.07,1.11s1.58-.37,2.07-1.11c.49-.74.73-1.82.73-3.24s-.24-2.5-.73-3.26Z"/>
    </g>
  </g>
</svg>